<svg width="410" height="330" viewBox="0 0 410 330" fill="none" xmlns="http://www.w3.org/2000/svg">
<path d="M191.007 204.721C190.286 204.235 189.702 203.698 189.255 203.111C188.807 202.526 188.497 201.901 188.325 201.234C188.153 200.568 188.12 199.871 188.224 199.143C188.328 198.415 188.572 197.665 188.955 196.895C189.326 196.149 189.756 195.549 190.243 195.093C190.733 194.639 191.267 194.334 191.846 194.177C192.427 194.019 193.04 194.014 193.685 194.16C194.332 194.308 194.995 194.611 195.676 195.071C196.337 195.517 196.858 196.025 197.239 196.595C197.623 197.163 197.883 197.759 198.02 198.381C198.161 199.003 198.192 199.616 198.114 200.223C198.038 200.831 197.869 201.397 197.609 201.921C197.425 202.289 197.223 202.652 197.001 203.009C196.78 203.366 196.537 203.667 196.273 203.914C196.01 204.157 195.72 204.301 195.402 204.345C195.087 204.391 194.742 204.287 194.368 204.034C194.203 203.923 194.036 203.773 193.866 203.583C193.696 203.394 193.567 203.183 193.478 202.949C193.39 202.716 193.386 202.481 193.466 202.243L193.424 202.215C193.294 202.324 193.137 202.405 192.954 202.458C192.772 202.512 192.568 202.515 192.34 202.467C192.115 202.42 191.871 202.301 191.608 202.11C191.308 201.89 191.075 201.635 190.909 201.343C190.744 201.048 190.641 200.73 190.6 200.39C190.562 200.048 190.58 199.695 190.654 199.331C190.732 198.966 190.861 198.602 191.041 198.241C191.212 197.898 191.415 197.616 191.651 197.394C191.887 197.173 192.142 197.012 192.415 196.911C192.691 196.812 192.974 196.775 193.263 196.8C193.556 196.825 193.842 196.911 194.121 197.058C194.369 197.192 194.577 197.348 194.746 197.527C194.917 197.703 195.041 197.88 195.119 198.058C195.198 198.234 195.226 198.389 195.204 198.523L195.246 198.552L195.459 198.125L196.207 198.63L194.491 202.079C194.385 202.293 194.347 202.518 194.376 202.756C194.406 202.993 194.527 203.184 194.739 203.327C194.979 203.489 195.207 203.524 195.423 203.431C195.641 203.341 195.866 203.126 196.098 202.786C196.332 202.448 196.593 201.989 196.882 201.409C197.051 201.069 197.175 200.703 197.252 200.314C197.333 199.923 197.359 199.524 197.329 199.117C197.301 198.711 197.21 198.308 197.057 197.909C196.903 197.51 196.68 197.128 196.386 196.763C196.096 196.397 195.726 196.063 195.277 195.759C194.723 195.386 194.181 195.144 193.651 195.034C193.124 194.923 192.62 194.941 192.138 195.088C191.66 195.234 191.215 195.505 190.804 195.9C190.397 196.295 190.035 196.811 189.717 197.45C189.395 198.098 189.187 198.728 189.094 199.338C189.004 199.95 189.028 200.533 189.167 201.089C189.308 201.646 189.565 202.17 189.938 202.659C190.309 203.151 190.796 203.601 191.399 204.008C191.658 204.183 191.927 204.328 192.206 204.445C192.484 204.562 192.736 204.653 192.96 204.72C193.185 204.787 193.347 204.834 193.447 204.86L193.296 205.696C193.117 205.664 192.893 205.601 192.625 205.508C192.359 205.417 192.082 205.303 191.795 205.167C191.509 205.032 191.247 204.883 191.007 204.721ZM192.108 201.408C192.423 201.621 192.713 201.725 192.977 201.719C193.24 201.714 193.486 201.603 193.713 201.386C193.941 201.169 194.16 200.849 194.37 200.427C194.582 200 194.699 199.633 194.719 199.327C194.739 199.022 194.676 198.755 194.531 198.528C194.386 198.301 194.172 198.092 193.89 197.902C193.621 197.72 193.354 197.642 193.087 197.666C192.824 197.688 192.579 197.792 192.353 197.975C192.13 198.158 191.945 198.396 191.798 198.691C191.636 199.017 191.524 199.351 191.461 199.692C191.399 200.031 191.415 200.351 191.508 200.651C191.602 200.949 191.802 201.201 192.108 201.408Z" fill="#27272A"/>
<path d="M315.112 269.825C314.272 269.602 313.552 269.288 312.952 268.883C312.352 268.481 311.876 267.995 311.525 267.427C311.174 266.859 310.95 266.217 310.853 265.502C310.756 264.788 310.79 264.008 310.955 263.163C311.115 262.346 311.371 261.646 311.725 261.062C312.082 260.479 312.522 260.021 313.046 259.688C313.574 259.353 314.174 259.15 314.846 259.079C315.521 259.008 316.256 259.078 317.049 259.289C317.821 259.493 318.472 259.801 319.001 260.211C319.533 260.619 319.952 261.092 320.257 261.631C320.565 262.167 320.764 262.731 320.853 263.324C320.945 263.917 320.935 264.501 320.823 265.075C320.744 265.48 320.645 265.884 320.525 266.29C320.406 266.695 320.25 267.055 320.058 267.371C319.867 267.684 319.622 267.912 319.322 268.056C319.025 268.2 318.659 268.214 318.222 268.099C318.03 268.048 317.824 267.961 317.606 267.838C317.387 267.716 317.202 267.56 317.052 267.37C316.901 267.181 316.833 266.962 316.846 266.713L316.797 266.7C316.7 266.844 316.568 266.971 316.402 267.079C316.239 267.189 316.04 267.257 315.803 267.286C315.569 267.315 315.297 267.282 314.986 267.188C314.632 267.079 314.333 266.915 314.09 266.695C313.848 266.472 313.66 266.208 313.526 265.903C313.395 265.596 313.316 265.26 313.29 264.895C313.266 264.528 313.293 264.146 313.37 263.75C313.444 263.374 313.566 263.044 313.737 262.761C313.908 262.478 314.113 262.245 314.354 262.063C314.598 261.881 314.865 261.755 315.156 261.686C315.45 261.614 315.754 261.602 316.068 261.65C316.348 261.695 316.596 261.774 316.81 261.887C317.026 261.997 317.196 262.123 317.322 262.264C317.447 262.403 317.518 262.539 317.532 262.672L317.582 262.685L317.673 262.217L318.546 262.448L317.808 266.229C317.762 266.463 317.786 266.687 317.88 266.899C317.974 267.112 318.145 267.251 318.392 267.317C318.672 267.391 318.906 267.35 319.092 267.194C319.281 267.039 319.443 266.765 319.577 266.373C319.715 265.981 319.845 265.467 319.97 264.832C320.043 264.458 320.064 264.076 320.033 263.687C320.005 263.296 319.921 262.914 319.78 262.542C319.642 262.171 319.442 261.824 319.182 261.5C318.922 261.175 318.598 260.89 318.21 260.644C317.825 260.395 317.371 260.201 316.846 260.062C316.201 259.891 315.603 259.839 315.053 259.908C314.505 259.974 314.015 260.153 313.583 260.446C313.153 260.737 312.791 261.134 312.497 261.636C312.205 262.137 311.991 262.737 311.855 263.437C311.716 264.148 311.684 264.803 311.76 265.404C311.839 266.006 312.023 266.544 312.311 267.02C312.602 267.496 312.998 267.903 313.498 268.24C313.998 268.581 314.599 268.845 315.302 269.031C315.604 269.111 315.907 269.161 316.213 269.18C316.518 269.2 316.79 269.204 317.029 269.194C317.268 269.184 317.44 269.176 317.545 269.168L317.625 269.999C317.441 270.026 317.204 270.04 316.916 270.04C316.63 270.04 316.327 270.023 316.007 269.988C315.69 269.954 315.392 269.9 315.112 269.825ZM315.285 266.37C315.653 266.467 315.965 266.471 316.223 266.381C316.48 266.291 316.69 266.107 316.854 265.831C317.018 265.555 317.145 265.185 317.235 264.722C317.327 264.254 317.341 263.874 317.277 263.581C317.212 263.288 317.078 263.059 316.874 262.893C316.669 262.728 316.402 262.601 316.073 262.514C315.76 262.431 315.476 262.444 315.22 262.552C314.969 262.658 314.757 262.834 314.585 263.078C314.416 263.321 314.3 263.604 314.237 263.927C314.167 264.284 314.148 264.633 314.18 264.972C314.212 265.31 314.315 265.604 314.488 265.855C314.662 266.103 314.928 266.275 315.285 266.37Z" fill="#27272A"/>
<path d="M210.865 276.833C210.025 276.61 209.305 276.296 208.705 275.89C208.105 275.488 207.63 275.003 207.278 274.434C206.927 273.866 206.703 273.225 206.606 272.51C206.509 271.795 206.543 271.015 206.708 270.17C206.868 269.353 207.124 268.653 207.478 268.069C207.835 267.486 208.275 267.028 208.799 266.695C209.327 266.36 209.927 266.157 210.599 266.086C211.275 266.016 212.009 266.086 212.803 266.296C213.574 266.501 214.225 266.808 214.754 267.218C215.287 267.626 215.705 268.1 216.01 268.638C216.318 269.174 216.517 269.739 216.606 270.331C216.699 270.925 216.688 271.508 216.576 272.083C216.497 272.487 216.398 272.892 216.278 273.297C216.159 273.702 216.003 274.063 215.811 274.379C215.62 274.692 215.375 274.92 215.075 275.063C214.779 275.207 214.412 275.222 213.975 275.106C213.783 275.055 213.578 274.968 213.359 274.846C213.14 274.723 212.955 274.567 212.805 274.378C212.654 274.188 212.586 273.969 212.6 273.721L212.55 273.707C212.453 273.852 212.321 273.978 212.155 274.087C211.993 274.196 211.793 274.265 211.556 274.293C211.322 274.322 211.05 274.289 210.739 274.195C210.385 274.086 210.086 273.922 209.843 273.702C209.601 273.48 209.413 273.216 209.279 272.911C209.148 272.603 209.07 272.267 209.043 271.902C209.019 271.535 209.046 271.154 209.123 270.758C209.197 270.381 209.319 270.052 209.49 269.768C209.661 269.485 209.867 269.252 210.107 269.07C210.351 268.888 210.618 268.763 210.909 268.693C211.203 268.621 211.507 268.61 211.821 268.658C212.101 268.703 212.349 268.781 212.564 268.894C212.779 269.004 212.949 269.13 213.075 269.272C213.201 269.411 213.271 269.546 213.285 269.679L213.335 269.692L213.426 269.224L214.299 269.456L213.561 273.236C213.515 273.471 213.539 273.694 213.633 273.907C213.727 274.119 213.898 274.258 214.145 274.324C214.425 274.398 214.659 274.357 214.845 274.202C215.034 274.046 215.196 273.773 215.331 273.38C215.468 272.988 215.598 272.475 215.723 271.839C215.796 271.465 215.817 271.084 215.786 270.694C215.759 270.303 215.674 269.921 215.533 269.55C215.395 269.179 215.196 268.831 214.935 268.507C214.675 268.183 214.351 267.897 213.963 267.651C213.579 267.402 213.124 267.208 212.599 267.069C211.954 266.898 211.356 266.847 210.806 266.915C210.258 266.981 209.769 267.16 209.336 267.453C208.906 267.744 208.544 268.141 208.25 268.643C207.958 269.144 207.744 269.744 207.608 270.444C207.469 271.155 207.437 271.811 207.513 272.412C207.592 273.013 207.776 273.552 208.064 274.027C208.355 274.503 208.751 274.91 209.251 275.248C209.751 275.588 210.352 275.852 211.055 276.038C211.357 276.118 211.661 276.168 211.966 276.188C212.271 276.207 212.543 276.212 212.782 276.202C213.021 276.192 213.193 276.183 213.298 276.176L213.379 277.006C213.194 277.034 212.958 277.047 212.669 277.047C212.383 277.047 212.08 277.03 211.76 276.995C211.444 276.961 211.145 276.907 210.865 276.833ZM211.038 273.377C211.406 273.474 211.718 273.478 211.976 273.388C212.233 273.298 212.444 273.115 212.607 272.838C212.771 272.562 212.898 272.193 212.989 271.73C213.08 271.261 213.094 270.881 213.03 270.588C212.966 270.296 212.831 270.066 212.627 269.901C212.422 269.735 212.155 269.609 211.826 269.521C211.513 269.438 211.229 269.451 210.974 269.559C210.722 269.665 210.51 269.841 210.338 270.086C210.169 270.328 210.053 270.611 209.99 270.935C209.92 271.292 209.901 271.64 209.933 271.98C209.965 272.317 210.068 272.611 210.241 272.862C210.415 273.111 210.681 273.282 211.038 273.377Z" fill="#27272A"/>
<path d="M161.296 311.516C160.576 311.029 159.992 310.493 159.545 309.905C159.096 309.321 158.786 308.695 158.615 308.029C158.443 307.363 158.409 306.665 158.513 305.937C158.618 305.209 158.862 304.46 159.245 303.689C159.616 302.944 160.045 302.343 160.533 301.888C161.023 301.434 161.557 301.128 162.135 300.972C162.717 300.814 163.33 300.808 163.974 300.954C164.621 301.102 165.285 301.406 165.965 301.865C166.627 302.312 167.148 302.82 167.528 303.389C167.912 303.957 168.173 304.553 168.31 305.175C168.45 305.797 168.482 306.411 168.403 307.017C168.327 307.625 168.159 308.191 167.898 308.715C167.715 309.084 167.512 309.447 167.291 309.803C167.069 310.16 166.826 310.462 166.562 310.708C166.299 310.952 166.009 311.096 165.692 311.14C165.377 311.185 165.032 311.082 164.657 310.829C164.493 310.718 164.325 310.567 164.155 310.378C163.985 310.188 163.856 309.977 163.768 309.744C163.679 309.511 163.675 309.275 163.756 309.038L163.713 309.009C163.583 309.118 163.427 309.199 163.243 309.252C163.062 309.307 162.858 309.31 162.63 309.261C162.405 309.215 162.16 309.096 161.897 308.904C161.597 308.685 161.364 308.429 161.198 308.137C161.033 307.842 160.93 307.525 160.889 307.184C160.851 306.843 160.87 306.49 160.944 306.125C161.022 305.76 161.151 305.397 161.33 305.036C161.501 304.692 161.705 304.41 161.941 304.189C162.176 303.967 162.431 303.806 162.705 303.706C162.98 303.606 163.263 303.569 163.552 303.595C163.845 303.619 164.131 303.705 164.41 303.853C164.658 303.986 164.867 304.142 165.036 304.321C165.206 304.497 165.33 304.674 165.408 304.853C165.488 305.029 165.516 305.184 165.493 305.318L165.535 305.346L165.748 304.919L166.497 305.425L164.781 308.874C164.675 309.087 164.636 309.313 164.666 309.55C164.696 309.788 164.816 309.978 165.028 310.121C165.269 310.283 165.497 310.318 165.712 310.226C165.93 310.135 166.155 309.92 166.387 309.581C166.621 309.243 166.883 308.784 167.171 308.204C167.341 307.863 167.464 307.498 167.542 307.108C167.623 306.718 167.648 306.319 167.618 305.911C167.591 305.505 167.5 305.103 167.346 304.703C167.193 304.304 166.969 303.922 166.675 303.557C166.386 303.192 166.016 302.857 165.566 302.554C165.013 302.18 164.471 301.938 163.94 301.828C163.414 301.718 162.909 301.736 162.427 301.882C161.949 302.028 161.505 302.299 161.094 302.695C160.687 303.089 160.324 303.606 160.007 304.244C159.684 304.893 159.476 305.522 159.384 306.132C159.293 306.744 159.317 307.328 159.456 307.883C159.597 308.441 159.854 308.964 160.227 309.454C160.599 309.946 161.086 310.395 161.689 310.802C161.948 310.977 162.217 311.123 162.495 311.24C162.774 311.356 163.025 311.448 163.25 311.515C163.475 311.581 163.637 311.628 163.737 311.655L163.585 312.49C163.407 312.458 163.183 312.395 162.915 312.303C162.649 312.211 162.372 312.097 162.084 311.961C161.799 311.826 161.536 311.678 161.296 311.516ZM162.397 308.202C162.713 308.415 163.002 308.519 163.266 308.514C163.53 308.508 163.776 308.397 164.003 308.18C164.23 307.963 164.449 307.644 164.659 307.222C164.872 306.794 164.988 306.428 165.008 306.122C165.028 305.816 164.966 305.55 164.821 305.323C164.676 305.096 164.462 304.887 164.179 304.696C163.911 304.515 163.643 304.436 163.377 304.46C163.114 304.483 162.869 304.586 162.642 304.77C162.419 304.952 162.235 305.191 162.088 305.486C161.926 305.811 161.813 306.145 161.75 306.486C161.689 306.825 161.704 307.145 161.797 307.445C161.891 307.743 162.091 307.996 162.397 308.202Z" fill="#27272A"/>
<path d="M255.054 144.245C254.763 143.426 254.614 142.65 254.606 141.917C254.595 141.186 254.721 140.506 254.983 139.878C255.246 139.25 255.639 138.682 256.163 138.172C256.686 137.663 257.336 137.222 258.112 136.849C258.862 136.488 259.572 136.276 260.242 136.213C260.913 136.154 261.53 136.237 262.093 136.465C262.66 136.693 263.16 137.061 263.595 137.566C264.03 138.075 264.384 138.716 264.659 139.489C264.926 140.242 265.042 140.957 265.007 141.635C264.975 142.315 264.827 142.941 264.563 143.514C264.302 144.088 263.957 144.589 263.528 145.018C263.1 145.45 262.622 145.793 262.095 146.047C261.724 146.225 261.341 146.388 260.946 146.534C260.551 146.68 260.173 146.77 259.81 146.804C259.45 146.836 259.128 146.773 258.844 146.615C258.561 146.46 258.344 146.169 258.193 145.744C258.126 145.556 258.081 145.336 258.058 145.084C258.034 144.832 258.057 144.588 258.126 144.351C258.195 144.114 258.333 143.927 258.542 143.789L258.525 143.74C258.354 143.748 258.178 143.716 257.997 143.647C257.818 143.579 257.65 143.458 257.495 143.282C257.34 143.109 257.214 142.867 257.116 142.557C257.005 142.202 256.971 141.86 257.012 141.53C257.057 141.198 257.165 140.886 257.336 140.593C257.512 140.302 257.74 140.036 258.019 139.794C258.303 139.554 258.626 139.347 258.99 139.172C259.335 139.005 259.671 138.907 259.995 138.876C260.32 138.845 260.624 138.873 260.906 138.959C261.189 139.049 261.441 139.191 261.66 139.386C261.883 139.583 262.063 139.824 262.2 140.109C262.32 140.365 262.395 140.614 262.424 140.857C262.456 141.098 262.45 141.313 262.406 141.501C262.364 141.687 262.293 141.826 262.194 141.918L262.211 141.966L262.641 141.759L262.943 142.61L259.472 144.281C259.257 144.385 259.09 144.539 258.971 144.744C258.852 144.948 258.835 145.171 258.92 145.412C259.017 145.685 259.181 145.851 259.412 145.909C259.643 145.97 259.955 145.937 260.348 145.811C260.741 145.687 261.23 145.485 261.814 145.204C262.157 145.039 262.477 144.827 262.775 144.567C263.076 144.31 263.337 144.011 263.559 143.673C263.781 143.337 263.95 142.965 264.067 142.558C264.183 142.151 264.232 141.715 264.214 141.251C264.2 140.787 264.102 140.3 263.92 139.789C263.697 139.16 263.403 138.641 263.04 138.233C262.68 137.826 262.26 137.535 261.781 137.358C261.305 137.183 260.781 137.126 260.21 137.188C259.642 137.251 259.037 137.438 258.394 137.747C257.742 138.061 257.194 138.43 256.751 138.853C256.308 139.279 255.976 139.753 255.753 140.274C255.531 140.798 255.424 141.365 255.431 141.976C255.436 142.588 255.559 143.237 255.803 143.923C255.907 144.217 256.037 144.495 256.192 144.755C256.348 145.016 256.496 145.241 256.638 145.429C256.78 145.618 256.884 145.753 256.949 145.835L256.322 146.4C256.196 146.266 256.053 146.081 255.891 145.845C255.731 145.612 255.575 145.355 255.424 145.073C255.274 144.794 255.151 144.518 255.054 144.245ZM257.945 142.308C258.072 142.667 258.244 142.924 258.462 143.08C258.679 143.235 258.945 143.297 259.26 143.264C259.575 143.232 259.945 143.113 260.37 142.909C260.8 142.702 261.115 142.484 261.316 142.256C261.517 142.027 261.627 141.78 261.646 141.514C261.665 141.247 261.618 140.953 261.504 140.632C261.396 140.327 261.226 140.103 260.996 139.96C260.769 139.818 260.508 139.751 260.214 139.758C259.923 139.766 259.629 139.842 259.332 139.985C259.005 140.143 258.712 140.337 258.456 140.567C258.201 140.796 258.021 141.057 257.915 141.349C257.811 141.64 257.821 141.96 257.945 142.308Z" fill="#27272A"/>
<path d="M359.163 88.511C358.776 87.4187 358.577 86.384 358.566 85.4071C358.551 84.4318 358.719 83.5255 359.069 82.6881C359.419 81.8508 359.944 81.0926 360.642 80.4138C361.34 79.7349 362.206 79.1465 363.24 78.6487C364.24 78.1672 365.187 77.8849 366.081 77.8016C366.975 77.7219 367.798 77.8336 368.549 78.1366C369.305 78.4416 369.972 78.9312 370.551 79.6054C371.131 80.2833 371.604 81.138 371.97 82.1697C372.326 83.1728 372.481 84.1266 372.434 85.031C372.392 85.9373 372.195 86.7721 371.842 87.5353C371.494 88.3005 371.034 88.9692 370.462 89.5414C369.891 90.1172 369.254 90.5744 368.551 90.9128C368.056 91.1511 367.546 91.3677 367.019 91.5625C366.493 91.7574 365.988 91.8772 365.505 91.9219C365.024 91.965 364.595 91.8812 364.217 91.6706C363.839 91.4635 363.55 91.0761 363.349 90.5085C363.26 90.2586 363.2 89.9657 363.169 89.6296C363.137 89.2936 363.168 88.9677 363.259 88.6519C363.351 88.336 363.536 88.086 363.814 87.9019L363.792 87.8376C363.563 87.8473 363.329 87.8055 363.088 87.7125C362.848 87.623 362.625 87.461 362.418 87.2263C362.212 86.9952 362.044 86.6729 361.913 86.2594C361.765 85.7871 361.719 85.3307 361.775 84.8902C361.834 84.4481 361.978 84.0318 362.207 83.6415C362.441 83.2531 362.744 82.8979 363.117 82.5761C363.495 82.2562 363.927 81.9796 364.411 81.7462C364.872 81.5244 365.319 81.3929 365.752 81.3516C366.185 81.3104 366.59 81.3475 366.966 81.4629C367.344 81.5819 367.679 81.7717 367.971 82.0322C368.268 82.2947 368.508 82.616 368.691 82.9961C368.852 83.3366 368.952 83.6689 368.991 83.9928C369.033 84.3151 369.025 84.6013 368.966 84.8513C368.91 85.0996 368.816 85.285 368.683 85.4072L368.706 85.4715L369.28 85.1954L369.682 86.3306L365.054 88.5588C364.768 88.6968 364.545 88.9023 364.386 89.1752C364.227 89.4482 364.205 89.7453 364.319 90.0665C364.448 90.4307 364.666 90.6516 364.973 90.7294C365.282 90.8107 365.698 90.7671 366.222 90.5986C366.747 90.4336 367.398 90.1639 368.176 89.7892C368.634 89.569 369.061 89.2861 369.458 88.9404C369.859 88.5966 370.207 88.199 370.503 87.7475C370.799 87.2996 371.025 86.8043 371.18 86.2615C371.335 85.7187 371.401 85.1375 371.377 84.518C371.357 83.9004 371.227 83.2506 370.985 82.5688C370.687 81.7299 370.296 81.0384 369.811 80.4944C369.331 79.9523 368.772 79.5634 368.133 79.3277C367.498 79.094 366.8 79.0184 366.038 79.101C365.281 79.1855 364.474 79.434 363.617 79.8464C362.747 80.2654 362.016 80.7572 361.426 81.3217C360.836 81.8898 360.393 82.5212 360.096 83.2159C359.8 83.9141 359.657 84.6706 359.666 85.4853C359.672 86.3017 359.837 87.1668 360.162 88.0806C360.301 88.4733 360.474 88.8434 360.681 89.1908C360.889 89.5383 361.087 89.8379 361.276 90.0895C361.465 90.3412 361.603 90.5214 361.69 90.6302L360.854 91.3835C360.687 91.2049 360.495 90.9585 360.28 90.6443C360.066 90.3336 359.858 89.9905 359.657 89.615C359.457 89.2431 359.293 88.8751 359.163 88.511ZM363.018 85.928C363.188 86.4063 363.417 86.7493 363.707 86.9568C363.996 87.1644 364.351 87.2464 364.771 87.203C365.191 87.1595 365.685 87.0014 366.251 86.7287C366.825 86.4526 367.245 86.1624 367.513 85.858C367.78 85.5536 367.927 85.2239 367.953 84.8687C367.979 84.5135 367.916 84.1218 367.764 83.6934C367.619 83.2864 367.393 82.9877 367.086 82.7971C366.783 82.6085 366.436 82.5187 366.043 82.5279C365.656 82.539 365.264 82.6398 364.868 82.8304C364.431 83.0408 364.041 83.2995 363.699 83.6065C363.36 83.9119 363.119 84.2596 362.978 84.6495C362.84 85.0377 362.853 85.4639 363.018 85.928Z" fill="#27272A"/>
<path d="M53.4224 92.4402C53.1317 91.621 52.9822 90.845 52.974 90.1123C52.9632 89.3808 53.0891 88.7011 53.3518 88.073C53.6145 87.445 54.0076 86.8764 54.5312 86.3673C55.0549 85.8581 55.7045 85.4169 56.4801 85.0435C57.23 84.6824 57.9401 84.4706 58.6103 84.4081C59.2813 84.3484 59.8985 84.4321 60.4616 84.6594C61.0283 84.8881 61.5287 85.2554 61.9629 85.761C62.398 86.2694 62.7529 86.9105 63.0274 87.6842C63.2944 88.4366 63.4103 89.1519 63.3753 89.8302C63.3438 90.5099 63.1958 91.136 62.9314 91.7084C62.6705 92.2823 62.3255 92.7839 61.8963 93.213C61.4682 93.6449 60.9904 93.9877 60.4631 94.2416C60.092 94.4203 59.709 94.5827 59.3144 94.7288C58.9197 94.875 58.541 94.9648 58.1782 94.9984C57.8181 95.0307 57.4961 94.9679 57.2123 94.8099C56.9294 94.6546 56.7124 94.364 56.5613 93.9383C56.4948 93.7509 56.4499 93.5312 56.4264 93.2792C56.4029 93.0272 56.4255 92.7827 56.4943 92.5459C56.5631 92.309 56.7019 92.1215 56.9106 91.9834L56.8935 91.9352C56.7223 91.9424 56.5463 91.9111 56.3657 91.8413C56.1861 91.7742 56.0186 91.6527 55.8632 91.4767C55.7088 91.3034 55.5826 91.0617 55.4845 90.7515C55.3738 90.3973 55.3393 90.055 55.3809 89.7246C55.425 89.393 55.5331 89.0808 55.7049 88.7881C55.8802 88.4968 56.1079 88.2304 56.3879 87.989C56.6714 87.7491 56.9949 87.5416 57.3583 87.3666C57.7039 87.2003 58.039 87.1016 58.3637 87.0707C58.6884 87.0398 58.992 87.0676 59.2744 87.1542C59.5579 87.2434 59.8092 87.3857 60.0283 87.5811C60.251 87.778 60.4309 88.019 60.5681 88.304C60.6887 88.5594 60.7636 88.8086 60.7929 89.0516C60.8247 89.2933 60.8184 89.5079 60.7741 89.6954C60.7323 89.8817 60.6617 90.0207 60.5624 90.1124L60.5795 90.1606L61.0095 89.9535L61.3116 90.8049L57.8407 92.476C57.6256 92.5795 57.4586 92.7337 57.3394 92.9384C57.2202 93.1431 57.2034 93.3659 57.2889 93.6069C57.3858 93.88 57.5495 94.0457 57.78 94.104C58.0114 94.165 58.3235 94.1323 58.7162 94.0059C59.1098 93.8822 59.5985 93.6798 60.1821 93.3989C60.5251 93.2337 60.8454 93.0215 61.143 92.7623C61.4441 92.5044 61.7054 92.2062 61.9269 91.8676C62.1494 91.5317 62.3188 91.1602 62.4351 90.7531C62.5513 90.346 62.6005 89.9101 62.5824 89.4455C62.5679 88.9822 62.4699 88.4949 62.2885 87.9836C62.0652 87.3544 61.7718 86.8358 61.4083 86.4278C61.0482 86.0212 60.6286 85.7295 60.1493 85.5527C59.6735 85.3774 59.1499 85.3207 58.5784 85.3827C58.0105 85.4461 57.4053 85.6324 56.7628 85.9418C56.1101 86.256 55.5622 86.6248 55.119 87.0482C54.6768 87.4743 54.3443 87.9479 54.1216 88.4689C53.8998 88.9926 53.7925 89.5599 53.7995 90.1709C53.804 90.7832 53.9278 91.432 54.171 92.1174C54.2755 92.4119 54.4054 92.6895 54.5609 92.9501C54.7163 93.2107 54.8649 93.4354 55.0068 93.6241C55.1487 93.8128 55.2521 93.948 55.317 94.0296L54.6903 94.5946C54.5649 94.4607 54.4214 94.2758 54.2598 94.0401C54.0992 93.8071 53.9435 93.5498 53.7926 93.2682C53.6427 92.9893 53.5193 92.7133 53.4224 92.4402ZM56.3134 90.5029C56.4407 90.8617 56.6129 91.1189 56.8299 91.2746C57.047 91.4303 57.3131 91.4918 57.6282 91.4592C57.9433 91.4266 58.3133 91.308 58.7382 91.1035C59.1683 90.8964 59.4836 90.6788 59.6843 90.4505C59.8851 90.2222 59.9951 89.9748 60.0145 89.7085C60.0338 89.4421 59.9865 89.1483 59.8725 88.827C59.7642 88.5218 59.5948 88.2977 59.3643 88.1548C59.1372 88.0133 58.8766 87.946 58.5823 87.9529C58.2916 87.9612 57.9977 88.0368 57.7008 88.1798C57.3732 88.3375 57.0809 88.5316 56.8239 88.7618C56.5696 88.9909 56.3894 89.2516 56.2833 89.5441C56.1799 89.8352 56.1899 90.1549 56.3134 90.5029Z" fill="#27272A"/>
<path d="M80.3774 253.322C79.2459 253.573 78.22 253.638 77.2996 253.517C76.3798 253.4 75.5746 253.104 74.8838 252.63C74.193 252.156 73.6241 251.513 73.1771 250.702C72.7301 249.891 72.4139 248.919 72.2285 247.786C72.0492 246.691 72.0423 245.678 72.2079 244.746C72.3771 243.813 72.7065 242.981 73.1959 242.248C73.6884 241.512 74.3302 240.891 75.1213 240.386C75.9161 239.88 76.8478 239.508 77.9164 239.271C78.9555 239.04 79.8933 239.01 80.7298 239.18C81.5694 239.347 82.2995 239.663 82.9201 240.129C83.5437 240.591 84.0461 241.156 84.4274 241.823C84.8123 242.489 85.0678 243.207 85.1939 243.977C85.2826 244.519 85.3467 245.074 85.3861 245.643C85.4255 246.211 85.4002 246.747 85.3103 247.252C85.2198 247.752 85.024 248.183 84.7229 248.544C84.4255 248.905 83.9829 249.15 83.3949 249.281C83.1361 249.338 82.8446 249.36 82.5206 249.347C82.1965 249.334 81.8987 249.259 81.6271 249.121C81.3555 248.984 81.1713 248.76 81.0743 248.448L81.0077 248.463C80.9544 248.699 80.8513 248.935 80.6982 249.171C80.5488 249.406 80.3357 249.614 80.0589 249.795C79.7857 249.976 79.4371 250.106 79.0132 250.184C78.5294 250.272 78.0882 250.258 77.6897 250.141C77.2906 250.021 76.939 249.816 76.635 249.527C76.334 249.234 76.0834 248.873 75.883 248.445C75.6857 248.012 75.5436 247.53 75.4567 247C75.3741 246.495 75.3725 246.017 75.4518 245.565C75.5312 245.114 75.6765 244.702 75.8876 244.33C76.1025 243.956 76.3721 243.637 76.6965 243.371C77.0239 243.101 77.3911 242.897 77.7979 242.76C78.1615 242.641 78.5008 242.583 78.8156 242.587C79.1299 242.587 79.3963 242.634 79.6149 242.729C79.8329 242.82 79.9813 242.942 80.06 243.095L80.1265 243.08L80.0237 242.452L81.1996 242.191L82.0294 247.26C82.0808 247.574 82.213 247.831 82.4259 248.032C82.6389 248.232 82.9118 248.296 83.2446 248.222C83.6217 248.138 83.8887 247.943 84.0456 247.637C84.2061 247.33 84.2787 246.896 84.2633 246.334C84.2516 245.771 84.176 245.063 84.0365 244.211C83.9545 243.71 83.8053 243.231 83.589 242.776C83.3757 242.316 83.0974 241.903 82.754 241.538C82.4143 241.171 82.0107 240.872 81.5433 240.639C81.0759 240.405 80.5481 240.259 79.9597 240.2C79.3745 240.136 78.7287 240.183 78.0224 240.34C77.1535 240.533 76.3974 240.842 75.7543 241.268C75.1143 241.689 74.5964 242.212 74.2008 242.839C73.8082 243.461 73.5468 244.17 73.4165 244.966C73.2893 245.757 73.3025 246.622 73.4561 247.56C73.6121 248.513 73.8746 249.333 74.2435 250.018C74.6161 250.702 75.0881 251.244 75.6594 251.644C76.2344 252.043 76.9057 252.293 77.6733 252.394C78.4415 252.498 79.299 252.445 80.2456 252.235C80.6523 252.145 81.0471 252.016 81.4299 251.85C81.8127 251.684 82.1481 251.52 82.436 251.359C82.7239 251.198 82.9308 251.081 83.0566 251.006L83.5361 251.969C83.3227 252.117 83.0391 252.281 82.6852 252.46C82.3351 252.639 81.9563 252.806 81.5488 252.963C81.1451 253.118 80.7546 253.238 80.3774 253.322ZM79.0034 249.001C79.4989 248.891 79.8836 248.701 80.1575 248.431C80.4313 248.161 80.6052 247.807 80.679 247.368C80.7528 246.929 80.7389 246.4 80.6373 245.779C80.5345 245.151 80.3767 244.679 80.1639 244.362C79.9511 244.045 79.6814 243.849 79.355 243.774C79.0285 243.7 78.6434 243.712 78.1997 243.81C77.7781 243.904 77.4359 244.096 77.1731 244.387C76.9134 244.673 76.7343 245.019 76.6359 245.424C76.5406 245.825 76.5284 246.242 76.5994 246.676C76.6777 247.154 76.8143 247.591 77.0092 247.985C77.2034 248.376 77.4643 248.671 77.7919 248.869C78.1189 249.064 78.5227 249.108 79.0034 249.001Z" fill="#27272A"/>
<path d="M143.377 102.016C142.627 101.577 142.011 101.08 141.529 100.524C141.046 99.9701 140.699 99.3673 140.489 98.7152C140.279 98.0631 140.205 97.3717 140.268 96.641C140.331 95.9103 140.533 95.1497 140.874 94.3592C141.203 93.5948 141.6 92.9707 142.063 92.4871C142.529 92.0049 143.047 91.6677 143.618 91.4757C144.192 91.2825 144.807 91.2385 145.462 91.3436C146.119 91.4503 146.802 91.7108 147.511 92.1252C148.2 92.5282 148.751 93.0009 149.165 93.5435C149.583 94.0849 149.878 94.661 150.051 95.2716C150.228 95.881 150.294 96.4897 150.25 97.0977C150.208 97.7071 150.072 98.2805 149.84 98.8179C149.677 99.1962 149.495 99.5697 149.293 99.9384C149.091 100.307 148.865 100.622 148.614 100.884C148.364 101.143 148.081 101.304 147.765 101.367C147.451 101.432 147.1 101.351 146.71 101.123C146.538 101.022 146.362 100.883 146.18 100.705C145.999 100.528 145.857 100.326 145.755 100.099C145.653 99.8731 145.636 99.6391 145.703 99.3975L145.659 99.3717C145.535 99.4886 145.382 99.5791 145.201 99.643C145.023 99.7084 144.818 99.7242 144.587 99.6904C144.358 99.658 144.106 99.5548 143.831 99.3809C143.518 99.1815 143.27 98.9416 143.087 98.6614C142.905 98.3785 142.783 98.069 142.722 97.7329C142.665 97.3957 142.663 97.0435 142.717 96.6764C142.774 96.3082 142.883 95.9389 143.042 95.5684C143.194 95.2162 143.382 94.9227 143.606 94.6878C143.83 94.453 144.076 94.2769 144.345 94.1595C144.616 94.0436 144.897 93.9893 145.189 93.9965C145.484 94.0025 145.776 94.0702 146.064 94.1995C146.321 94.3168 146.539 94.459 146.718 94.6262C146.899 94.7907 147.034 94.9593 147.122 95.1318C147.212 95.3017 147.249 95.4541 147.234 95.589L147.278 95.6148L147.467 95.1765L148.247 95.6325L146.722 99.1703C146.628 99.3894 146.602 99.6162 146.646 99.8506C146.689 100.085 146.821 100.267 147.042 100.396C147.292 100.542 147.522 100.563 147.734 100.457C147.947 100.354 148.16 100.126 148.374 99.7733C148.589 99.4225 148.825 98.9497 149.082 98.3549C149.232 98.0053 149.335 97.6344 149.391 97.2421C149.45 96.8487 149.453 96.4503 149.399 96.0467C149.348 95.6446 149.235 95.2498 149.058 94.8622C148.881 94.4746 148.635 94.1086 148.32 93.7643C148.008 93.4187 147.618 93.109 147.15 92.8351C146.573 92.4981 146.016 92.2915 145.478 92.2152C144.943 92.1378 144.438 92.1872 143.963 92.3634C143.492 92.5385 143.061 92.8355 142.672 93.2546C142.286 93.6725 141.952 94.2089 141.67 94.8637C141.383 95.529 141.211 96.168 141.152 96.7806C141.096 97.3947 141.154 97.9738 141.325 98.5179C141.498 99.0635 141.786 99.5681 142.188 100.032C142.588 100.498 143.103 100.915 143.731 101.282C144 101.44 144.278 101.568 144.564 101.666C144.85 101.765 145.108 101.841 145.337 101.893C145.566 101.945 145.732 101.982 145.834 102.002L145.729 102.842C145.548 102.821 145.32 102.773 145.046 102.698C144.774 102.623 144.489 102.527 144.193 102.41C143.899 102.294 143.627 102.162 143.377 102.016ZM144.293 98.6514C144.622 98.8436 144.918 98.9287 145.182 98.9068C145.447 98.885 145.687 98.7591 145.902 98.5292C146.118 98.2993 146.319 97.9678 146.506 97.5347C146.695 97.0964 146.791 96.7246 146.793 96.4191C146.796 96.1136 146.718 95.8525 146.56 95.6358C146.401 95.4191 146.175 95.2247 145.881 95.0526C145.601 94.8891 145.328 94.8276 145.062 94.8679C144.8 94.9072 144.56 95.0251 144.343 95.2217C144.13 95.4172 143.958 95.6662 143.828 95.9688C143.684 96.3028 143.59 96.6415 143.547 96.9851C143.504 97.3261 143.538 97.6431 143.648 97.9361C143.759 98.2266 143.974 98.465 144.293 98.6514Z" fill="#27272A"/>
<path d="M253.035 26.0507C252.284 25.6119 251.668 25.1144 251.186 24.5583C250.703 24.0048 250.356 23.4019 250.146 22.7499C249.936 22.0978 249.862 21.4064 249.925 20.6757C249.989 19.945 250.19 19.1844 250.531 18.3939C250.861 17.6294 251.257 17.0054 251.72 16.5218C252.186 16.0395 252.704 15.7024 253.275 15.5104C253.85 15.3171 254.464 15.2731 255.119 15.3783C255.776 15.4849 256.459 15.7455 257.168 16.1599C257.857 16.5628 258.409 17.0356 258.823 17.5782C259.24 18.1196 259.536 18.6956 259.708 19.3063C259.885 19.9157 259.951 20.5244 259.907 21.1324C259.865 21.7417 259.729 22.3152 259.497 22.8526C259.334 23.2309 259.152 23.6044 258.95 23.973C258.748 24.3417 258.522 24.6568 258.271 24.9184C258.021 25.1774 257.738 25.3386 257.422 25.4021C257.109 25.467 256.757 25.3855 256.367 25.1575C256.195 25.0571 256.019 24.918 255.838 24.7402C255.656 24.5623 255.515 24.3602 255.413 24.134C255.311 23.9077 255.293 23.6738 255.36 23.4322L255.316 23.4064C255.192 23.5233 255.04 23.6137 254.859 23.6777C254.68 23.7431 254.475 23.7589 254.244 23.7251C254.015 23.6926 253.764 23.5895 253.489 23.4156C253.175 23.2161 252.927 22.9763 252.744 22.696C252.562 22.4132 252.44 22.1037 252.379 21.7676C252.322 21.4303 252.32 21.0782 252.374 20.7111C252.432 20.3429 252.54 19.9735 252.7 19.6031C252.851 19.2509 253.039 18.9573 253.263 18.7225C253.487 18.4876 253.734 18.3115 254.002 18.1942C254.273 18.0783 254.555 18.024 254.846 18.0312C255.142 18.0372 255.433 18.1049 255.721 18.2342C255.978 18.3515 256.196 18.4937 256.376 18.6609C256.557 18.8254 256.691 18.994 256.78 19.1665C256.869 19.3364 256.906 19.4888 256.891 19.6237L256.935 19.6495L257.124 19.2112L257.904 19.6672L256.379 23.205C256.285 23.4241 256.259 23.6509 256.303 23.8852C256.346 24.1196 256.478 24.3013 256.699 24.4304C256.949 24.5766 257.18 24.5972 257.391 24.492C257.604 24.3882 257.818 24.1602 258.031 23.808C258.247 23.4572 258.483 22.9844 258.739 22.3895C258.89 22.0399 258.993 21.669 259.048 21.2768C259.107 20.8834 259.11 20.4849 259.057 20.0814C259.006 19.6793 258.892 19.2845 258.715 18.8969C258.538 18.5093 258.292 18.1433 257.977 17.7989C257.665 17.4534 257.275 17.1437 256.807 16.8698C256.23 16.5328 255.673 16.3262 255.135 16.2499C254.6 16.1725 254.095 16.2219 253.62 16.3981C253.149 16.5732 252.718 16.8702 252.329 17.2893C251.943 17.7072 251.609 18.2435 251.327 18.8984C251.04 19.5637 250.868 20.2026 250.809 20.8153C250.754 21.4294 250.811 22.0085 250.982 22.5526C251.155 23.0981 251.443 23.6027 251.845 24.0664C252.246 24.5327 252.76 24.9494 253.388 25.3165C253.658 25.4742 253.935 25.6024 254.221 25.7011C254.507 25.7997 254.765 25.8752 254.994 25.9276C255.224 25.98 255.389 26.0163 255.491 26.0366L255.387 26.8771C255.205 26.8561 254.977 26.8078 254.703 26.7322C254.431 26.6581 254.147 26.5622 253.85 26.4445C253.557 26.3282 253.285 26.197 253.035 26.0507ZM253.95 22.6861C254.279 22.8782 254.575 22.9634 254.84 22.9415C255.104 22.9196 255.344 22.7938 255.56 22.5639C255.775 22.334 255.977 22.0025 256.163 21.5694C256.352 21.1311 256.448 20.7592 256.451 20.4538C256.453 20.1483 256.375 19.8872 256.217 19.6705C256.059 19.4537 255.832 19.2593 255.538 19.0872C255.258 18.9238 254.986 18.8622 254.719 18.9026C254.457 18.9418 254.217 19.0597 254.001 19.2564C253.787 19.4518 253.616 19.7009 253.485 20.0035C253.341 20.3375 253.247 20.6762 253.204 21.0198C253.161 21.3607 253.195 21.6777 253.305 21.9708C253.416 22.2612 253.631 22.4997 253.95 22.6861Z" fill="#27272A"/>
<path d="M169.613 257.482C167.12 258.25 164.838 258.58 162.765 258.472C160.695 258.372 158.855 257.85 157.246 256.905C155.637 255.96 154.277 254.614 153.165 252.867C152.054 251.12 151.212 248.987 150.64 246.469C150.087 244.034 149.93 241.752 150.17 239.624C150.418 237.493 151.038 235.559 152.029 233.822C153.026 232.074 154.373 230.561 156.07 229.282C157.774 228.001 159.804 226.997 162.157 226.272C164.446 225.566 166.537 225.331 168.429 225.566C170.327 225.79 172.002 226.373 173.453 227.313C174.91 228.242 176.111 229.424 177.056 230.858C178.008 232.289 178.679 233.861 179.068 235.573C179.342 236.778 179.562 238.018 179.729 239.291C179.897 240.565 179.915 241.777 179.784 242.929C179.652 244.073 179.275 245.078 178.653 245.946C178.039 246.811 177.084 247.443 175.789 247.842C175.219 248.018 174.571 248.12 173.845 248.148C173.12 248.176 172.444 248.059 171.818 247.799C171.193 247.538 170.75 247.065 170.49 246.381L170.343 246.426C170.257 246.968 170.06 247.518 169.75 248.076C169.45 248.631 169.003 249.138 168.41 249.596C167.825 250.052 167.064 250.406 166.128 250.659C165.06 250.944 164.073 250.991 163.166 250.799C162.258 250.598 161.444 250.2 160.725 249.603C160.012 248.996 159.401 248.228 158.894 247.3C158.393 246.36 158.009 245.3 157.741 244.12C157.486 242.998 157.416 241.922 157.53 240.89C157.644 239.859 157.911 238.905 158.331 238.029C158.759 237.15 159.317 236.382 160.004 235.726C160.698 235.059 161.489 234.535 162.379 234.154C163.175 233.82 163.924 233.629 164.628 233.581C165.33 233.524 165.932 233.583 166.433 233.758C166.933 233.924 167.281 234.172 167.478 234.503L167.625 234.458L167.308 233.062L169.898 232.263L172.457 243.533C172.616 244.231 172.947 244.787 173.451 245.201C173.954 245.615 174.573 245.709 175.306 245.483C176.136 245.227 176.706 244.741 177.013 244.023C177.329 243.303 177.431 242.312 177.318 241.048C177.213 239.782 176.946 238.201 176.515 236.307C176.263 235.193 175.863 234.142 175.316 233.155C174.775 232.156 174.096 231.276 173.278 230.515C172.468 229.75 171.525 229.147 170.449 228.705C169.373 228.263 168.173 228.028 166.851 228C165.535 227.961 164.099 228.181 162.543 228.661C160.629 229.251 158.984 230.082 157.606 231.156C156.236 232.219 155.152 233.491 154.356 234.972C153.565 236.443 153.08 238.087 152.9 239.903C152.726 241.708 152.876 243.654 153.35 245.74C153.832 247.859 154.532 249.658 155.452 251.135C156.379 252.61 157.509 253.747 158.841 254.546C160.181 255.342 161.715 255.786 163.443 255.875C165.174 255.973 167.082 255.701 169.167 255.059C170.062 254.783 170.926 254.423 171.758 253.98C172.59 253.537 173.316 253.108 173.937 252.695C174.558 252.281 175.003 251.979 175.274 251.789L176.479 253.872C176.023 254.244 175.412 254.663 174.647 255.13C173.89 255.595 173.067 256.04 172.179 256.465C171.299 256.887 170.443 257.226 169.613 257.482ZM165.941 247.996C167.033 247.659 167.865 247.163 168.44 246.505C169.014 245.848 169.353 245.019 169.456 244.018C169.56 243.017 169.455 241.826 169.142 240.446C168.825 239.05 168.406 238.014 167.887 237.338C167.367 236.663 166.738 236.27 165.998 236.16C165.259 236.05 164.4 236.145 163.423 236.447C162.494 236.733 161.757 237.227 161.21 237.929C160.67 238.62 160.318 239.431 160.155 240.362C159.998 241.281 160.029 242.223 160.248 243.188C160.489 244.251 160.855 245.21 161.346 246.064C161.834 246.909 162.458 247.526 163.217 247.915C163.974 248.295 164.883 248.322 165.941 247.996Z" fill="#27272A"/>
<path d="M52.9212 290.122C53.9376 292.524 54.4968 294.761 54.5988 296.834C54.7089 298.904 54.3754 300.787 53.5983 302.484C52.8212 304.18 51.6198 305.669 49.9939 306.952C48.3681 308.234 46.3315 309.288 43.884 310.112C41.5174 310.908 39.2633 311.295 37.1217 311.272C34.9769 311.24 32.9902 310.82 31.1616 310.009C29.3216 309.194 27.6797 308.007 26.2359 306.449C24.7887 304.883 23.5852 302.965 22.6253 300.697C21.692 298.491 21.2465 296.435 21.2888 294.529C21.3197 292.618 21.7293 290.893 22.5178 289.354C23.2948 287.81 24.3489 286.496 25.6801 285.411C27.008 284.318 28.5039 283.492 30.1678 282.932C31.339 282.538 32.5496 282.193 33.7997 281.898C35.0497 281.602 36.2543 281.461 37.4134 281.475C38.5644 281.491 39.603 281.764 40.5291 282.296C41.4519 282.819 42.1773 283.705 42.7054 284.952C42.9379 285.502 43.1048 286.136 43.2061 286.855C43.3074 287.574 43.26 288.258 43.064 288.907C42.8679 289.556 42.4425 290.045 41.7877 290.373L41.8475 290.514C42.3957 290.545 42.9628 290.685 43.5489 290.936C44.1317 291.18 44.6811 291.573 45.1972 292.117C45.71 292.652 46.1396 293.373 46.4859 294.279C46.8773 295.313 47.0234 296.29 46.9241 297.211C46.8167 298.135 46.5028 298.985 45.9822 299.761C45.4502 300.532 44.748 301.217 43.8754 301.816C42.9915 302.409 41.9761 302.899 40.8291 303.285C39.7387 303.652 38.6747 303.831 37.6372 303.821C36.5996 303.812 35.6237 303.643 34.7094 303.314C33.7918 302.977 32.9716 302.5 32.2489 301.883C31.5147 301.26 30.9132 300.525 30.4443 299.679C30.0314 298.921 29.7655 298.195 29.6466 297.499C29.5196 296.807 29.5176 296.202 29.6404 295.686C29.7551 295.172 29.967 294.8 30.2759 294.571L30.2161 294.429L28.8591 294.886L27.8029 292.39L38.7558 288.703C39.4343 288.475 39.9539 288.089 40.3148 287.546C40.6756 287.003 40.7066 286.379 40.4077 285.672C40.0689 284.872 39.5271 284.355 38.7823 284.121C38.0342 283.88 37.0373 283.879 35.7916 284.119C34.5426 284.351 32.9972 284.777 31.1556 285.397C30.0732 285.762 29.0685 286.266 28.1413 286.91C27.2027 287.548 26.396 288.313 25.7209 289.204C25.0426 290.087 24.538 291.086 24.2073 292.202C23.8766 293.317 23.7641 294.534 23.8698 295.853C23.9641 297.166 24.3285 298.572 24.9629 300.071C25.7434 301.916 26.7374 303.469 27.9448 304.73C29.1409 305.987 30.5161 306.936 32.0707 307.578C33.6138 308.216 35.298 308.532 37.1231 308.527C38.9369 308.517 40.8575 308.171 42.8849 307.489C44.9446 306.795 46.6629 305.917 48.0397 304.852C49.4131 303.78 50.4299 302.541 51.09 301.135C51.7468 299.722 52.0324 298.151 51.9468 296.422C51.8693 294.69 51.4054 292.82 50.5551 290.811C50.1898 289.947 49.7446 289.124 49.2196 288.342C48.6945 287.559 48.1949 286.88 47.7206 286.304C47.2463 285.728 46.9009 285.316 46.6844 285.066L48.6348 283.656C49.0507 284.072 49.5298 284.637 50.0719 285.351C50.6107 286.057 51.1365 286.831 51.6491 287.672C52.1584 288.505 52.5825 289.321 52.9212 290.122ZM43.8548 294.734C43.4098 293.682 42.8313 292.904 42.1194 292.4C41.4076 291.895 40.5483 291.642 39.5417 291.64C38.535 291.638 37.3613 291.863 36.0205 292.314C34.6635 292.771 33.6751 293.292 33.0553 293.877C32.4355 294.462 32.1084 295.128 32.0738 295.875C32.0392 296.622 32.2212 297.467 32.6198 298.409C32.9984 299.303 33.5646 299.987 34.3182 300.46C35.0605 300.927 35.9029 301.195 36.8454 301.263C37.7764 301.327 38.7105 301.2 39.6474 300.885C40.6813 300.537 41.5982 300.076 42.398 299.502C43.1897 298.93 43.7404 298.247 44.0501 297.453C44.3517 296.661 44.2866 295.754 43.8548 294.734Z" fill="#27272A"/>
<path d="M393.931 311.564C393.101 311.82 392.34 311.93 391.649 311.894C390.959 311.861 390.346 311.686 389.809 311.372C389.273 311.057 388.819 310.608 388.449 310.026C388.078 309.443 387.798 308.732 387.607 307.893C387.423 307.081 387.371 306.321 387.451 305.611C387.533 304.901 387.74 304.256 388.07 303.677C388.403 303.095 388.852 302.59 389.417 302.164C389.985 301.737 390.662 301.402 391.446 301.16C392.209 300.925 392.906 300.847 393.537 300.925C394.17 301 394.728 301.194 395.212 301.507C395.697 301.817 396.098 302.211 396.413 302.689C396.73 303.166 396.954 303.69 397.083 304.261C397.175 304.663 397.248 305.076 397.304 305.5C397.359 305.925 397.366 306.329 397.322 306.713C397.278 307.094 397.152 307.429 396.945 307.718C396.74 308.007 396.422 308.218 395.99 308.351C395.8 308.409 395.584 308.443 395.342 308.452C395.101 308.462 394.875 308.423 394.667 308.336C394.458 308.249 394.311 308.092 394.224 307.863L394.175 307.878C394.146 308.059 394.08 308.243 393.977 308.428C393.877 308.614 393.728 308.782 393.53 308.935C393.335 309.087 393.082 309.205 392.77 309.29C392.414 309.385 392.085 309.4 391.783 309.336C391.48 309.269 391.209 309.137 390.969 308.938C390.731 308.735 390.528 308.479 390.359 308.17C390.192 307.857 390.064 307.503 389.974 307.11C389.889 306.736 389.866 306.377 389.904 306.033C389.942 305.69 390.031 305.372 390.171 305.08C390.314 304.787 390.499 304.531 390.729 304.312C390.96 304.089 391.224 303.915 391.52 303.788C391.785 303.676 392.035 303.613 392.27 303.597C392.504 303.578 392.704 303.598 392.872 303.656C393.038 303.711 393.154 303.794 393.22 303.904L393.269 303.889L393.163 303.424L394.026 303.158L394.88 306.914C394.933 307.147 395.043 307.332 395.211 307.47C395.379 307.608 395.585 307.64 395.829 307.564C396.106 307.479 396.296 307.317 396.398 307.078C396.504 306.838 396.537 306.507 396.5 306.086C396.465 305.664 396.376 305.137 396.232 304.505C396.148 304.134 396.015 303.784 395.833 303.455C395.652 303.122 395.426 302.829 395.153 302.575C394.883 302.32 394.569 302.119 394.21 301.972C393.851 301.824 393.452 301.746 393.011 301.737C392.572 301.724 392.094 301.797 391.575 301.957C390.937 302.153 390.388 302.431 389.929 302.789C389.472 303.143 389.111 303.567 388.846 304.061C388.582 304.551 388.421 305.099 388.361 305.704C388.303 306.306 388.353 306.955 388.511 307.65C388.671 308.356 388.905 308.956 389.211 309.448C389.52 309.94 389.897 310.319 390.341 310.585C390.788 310.851 391.299 310.998 391.875 311.028C392.452 311.061 393.088 310.97 393.783 310.756C394.081 310.664 394.369 310.544 394.647 310.396C394.924 310.249 395.166 310.106 395.373 309.968C395.58 309.83 395.728 309.73 395.819 309.666L396.22 310.361C396.068 310.485 395.865 310.624 395.61 310.78C395.357 310.935 395.083 311.083 394.787 311.225C394.494 311.366 394.208 311.479 393.931 311.564ZM392.708 308.402C393.072 308.29 393.349 308.124 393.54 307.905C393.732 307.686 393.845 307.41 393.879 307.076C393.914 306.742 393.879 306.345 393.775 305.885C393.669 305.42 393.529 305.075 393.356 304.849C393.183 304.624 392.973 304.493 392.727 304.456C392.48 304.42 392.194 304.452 391.868 304.552C391.559 304.647 391.313 304.812 391.131 305.046C390.951 305.277 390.833 305.547 390.779 305.857C390.727 306.164 390.737 306.478 390.81 306.799C390.89 307.154 391.012 307.473 391.176 307.758C391.339 308.04 391.547 308.245 391.8 308.375C392.052 308.502 392.355 308.511 392.708 308.402Z" fill="#27272A"/>
<path d="M226.054 170.853L228.135 176.781L227.25 177.221L225.016 171.369L226.054 170.853ZM228.56 179.37C228.372 179.464 228.185 179.473 227.998 179.399C227.811 179.324 227.682 179.189 227.61 178.991C227.537 178.794 227.543 178.591 227.626 178.382C227.709 178.174 227.844 178.023 228.033 177.929C228.221 177.836 228.408 177.826 228.595 177.901C228.782 177.975 228.911 178.111 228.983 178.308C229.031 178.439 229.043 178.575 229.02 178.716C228.999 178.856 228.948 178.985 228.869 179.103C228.79 179.218 228.688 179.307 228.56 179.37Z" fill="#27272A"/>
<path d="M229.063 305.163L231.144 311.091L230.259 311.531L228.025 305.679L229.063 305.163ZM231.569 313.68C231.381 313.773 231.193 313.783 231.007 313.708C230.82 313.634 230.691 313.498 230.618 313.301C230.546 313.103 230.551 312.9 230.635 312.692C230.718 312.484 230.853 312.333 231.041 312.239C231.23 312.145 231.417 312.136 231.604 312.21C231.79 312.285 231.92 312.42 231.992 312.618C232.04 312.749 232.052 312.884 232.029 313.025C232.008 313.165 231.957 313.294 231.877 313.413C231.799 313.527 231.696 313.616 231.569 313.68Z" fill="#27272A"/>
<path d="M345.878 300.768L350.04 312.623L348.27 313.503L343.802 301.799L345.878 300.768ZM350.891 317.801C350.514 317.988 350.139 318.007 349.766 317.859C349.393 317.71 349.134 317.438 348.989 317.043C348.844 316.649 348.855 316.243 349.021 315.826C349.187 315.409 349.459 315.107 349.835 314.92C350.212 314.733 350.587 314.714 350.96 314.862C351.333 315.011 351.592 315.283 351.737 315.678C351.832 315.939 351.857 316.211 351.81 316.493C351.768 316.772 351.667 317.03 351.507 317.268C351.35 317.497 351.145 317.675 350.891 317.801Z" fill="#27272A"/>
<path d="M331.719 114.249L333.8 120.177L332.915 120.617L330.681 114.765L331.719 114.249ZM334.225 122.766C334.037 122.86 333.85 122.869 333.663 122.795C333.476 122.72 333.347 122.585 333.274 122.387C333.202 122.19 333.208 121.987 333.291 121.778C333.374 121.57 333.509 121.419 333.698 121.325C333.886 121.232 334.073 121.222 334.26 121.297C334.446 121.371 334.576 121.507 334.648 121.704C334.696 121.835 334.708 121.971 334.685 122.112C334.664 122.252 334.613 122.381 334.533 122.499C334.455 122.614 334.352 122.703 334.225 122.766Z" fill="#27272A"/>
<path d="M348.104 222.987L351.742 228.113L351.04 228.809L347.281 223.802L348.104 222.987ZM352.879 230.498C352.729 230.646 352.557 230.712 352.361 230.697C352.165 230.681 352.005 230.588 351.881 230.419C351.757 230.249 351.705 230.05 351.723 229.822C351.741 229.595 351.825 229.407 351.974 229.259C352.123 229.111 352.296 229.045 352.492 229.061C352.687 229.076 352.847 229.169 352.971 229.339C353.053 229.451 353.104 229.58 353.122 229.724C353.142 229.866 353.132 230.006 353.091 230.146C353.05 230.281 352.98 230.398 352.879 230.498Z" fill="#27272A"/>
<path d="M24.4224 119.049L26.5038 124.977L25.6185 125.417L23.3845 119.565L24.4224 119.049ZM26.9289 127.566C26.7406 127.659 26.5532 127.669 26.3666 127.595C26.18 127.52 26.0505 127.384 25.9782 127.187C25.9059 126.99 25.9112 126.787 25.9943 126.578C26.0773 126.37 26.2129 126.219 26.4012 126.125C26.5895 126.032 26.7769 126.022 26.9635 126.096C27.1501 126.171 27.2796 126.307 27.3519 126.504C27.3998 126.635 27.412 126.771 27.3884 126.912C27.3675 127.051 27.317 127.18 27.2372 127.299C27.1588 127.414 27.0561 127.503 26.9289 127.566Z" fill="#27272A"/>
<path d="M301.325 141.751L299.899 147.853L298.951 147.571L300.215 141.42L301.325 141.751ZM298.884 150.176C298.683 150.116 298.526 149.991 298.414 149.801C298.302 149.611 298.268 149.413 298.314 149.208C298.359 149.003 298.469 148.848 298.646 148.744C298.823 148.64 299.012 148.618 299.213 148.678C299.415 148.738 299.571 148.863 299.683 149.053C299.795 149.243 299.829 149.441 299.784 149.646C299.754 149.782 299.693 149.897 299.6 149.99C299.509 150.084 299.401 150.15 299.274 150.186C299.15 150.22 299.02 150.217 298.884 150.176Z" fill="#27272A"/>
<path d="M74.6071 34.4997L73.1805 40.6023L72.233 40.3201L73.4962 34.1689L74.6071 34.4997ZM72.1659 42.9253C71.9644 42.8652 71.8077 42.7402 71.6957 42.5502C71.5837 42.3601 71.5502 42.1624 71.5952 41.9571C71.6403 41.7518 71.7511 41.597 71.9277 41.493C72.1043 41.3889 72.2934 41.3668 72.4948 41.4268C72.6963 41.4868 72.8531 41.6119 72.9651 41.8019C73.0771 41.992 73.1106 42.1896 73.0655 42.395C73.0357 42.531 72.9742 42.6457 72.8812 42.7392C72.7909 42.8335 72.6823 42.8987 72.5554 42.9348C72.4319 42.969 72.3021 42.9658 72.1659 42.9253Z" fill="#27272A"/>
<path d="M395.411 47.1765L393.985 53.279L393.037 52.9968L394.3 46.8457L395.411 47.1765ZM392.97 55.602C392.769 55.542 392.612 55.417 392.5 55.2269C392.388 55.0369 392.354 54.8392 392.399 54.6339C392.445 54.4285 392.555 54.2738 392.732 54.1697C392.909 54.0656 393.098 54.0436 393.299 54.1036C393.501 54.1636 393.657 54.2886 393.769 54.4787C393.881 54.6687 393.915 54.8664 393.87 55.0717C393.84 55.2077 393.778 55.3224 393.685 55.4159C393.595 55.5102 393.486 55.5755 393.36 55.6116C393.236 55.6457 393.106 55.6426 392.97 55.602Z" fill="#27272A"/>
<path d="M99.694 89.9455L98.2675 96.0481L97.32 95.7659L98.5831 89.6147L99.694 89.9455ZM97.2528 98.3711C97.0514 98.311 96.8946 98.186 96.7826 97.996C96.6706 97.8059 96.6371 97.6082 96.6822 97.4029C96.7272 97.1976 96.8381 97.0428 97.0146 96.9388C97.1912 96.8347 97.3803 96.8126 97.5817 96.8726C97.7832 96.9326 97.94 97.0577 98.052 97.2477C98.164 97.4378 98.1975 97.6354 98.1524 97.8408C98.1226 97.9768 98.0611 98.0915 97.9681 98.185C97.8778 98.2793 97.7692 98.3445 97.6423 98.3806C97.5188 98.4148 97.389 98.4116 97.2528 98.3711Z" fill="#27272A"/>
<path d="M87.2374 198.884L92.6583 202.061L92.2764 202.973L86.7897 199.953L87.2374 198.884ZM94.6607 203.763C94.5795 203.957 94.4444 204.086 94.2553 204.151C94.0662 204.215 93.8803 204.196 93.6975 204.092C93.5147 203.988 93.387 203.829 93.3142 203.616C93.2415 203.403 93.2457 203.199 93.3269 203.005C93.4081 202.812 93.5432 202.682 93.7323 202.618C93.9214 202.553 94.1073 202.573 94.2901 202.677C94.4111 202.746 94.5085 202.842 94.5824 202.965C94.6573 203.085 94.7032 203.216 94.7199 203.359C94.7353 203.498 94.7156 203.632 94.6607 203.763Z" fill="#27272A"/>
<path d="M70.4233 279.032L75.8442 282.209L75.4624 283.121L69.9756 280.101L70.4233 279.032ZM77.8467 283.912C77.7655 284.106 77.6303 284.235 77.4413 284.299C77.2522 284.364 77.0663 284.344 76.8835 284.24C76.7007 284.136 76.5729 283.978 76.5002 283.765C76.4274 283.551 76.4317 283.348 76.5129 283.154C76.5941 282.96 76.7292 282.831 76.9183 282.766C77.1073 282.702 77.2933 282.721 77.4761 282.825C77.5971 282.894 77.6945 282.99 77.7684 283.113C77.8433 283.233 77.8891 283.365 77.9059 283.507C77.9213 283.646 77.9015 283.781 77.8467 283.912Z" fill="#27272A"/>
<path d="M163.651 59.2422L166.05 65.0499L165.195 65.5472L162.649 59.8251L163.651 59.2422ZM166.617 67.617C166.435 67.7228 166.25 67.7443 166.06 67.6817C165.871 67.619 165.734 67.4911 165.652 67.2979C165.569 67.1047 165.563 66.901 165.633 66.6869C165.704 66.4728 165.83 66.3129 166.012 66.2071C166.194 66.1014 166.379 66.0798 166.569 66.1425C166.758 66.2051 166.895 66.3331 166.977 66.5263C167.032 66.6542 167.052 66.7896 167.037 66.9323C167.024 67.0737 166.981 67.2063 166.908 67.3301C166.837 67.4499 166.74 67.5456 166.617 67.617Z" fill="#27272A"/>
<path d="M13.4673 201.999C13.2526 201.466 13.1599 200.958 13.1892 200.472C13.2184 199.986 13.3518 199.552 13.5893 199.167C13.8269 198.783 14.1525 198.478 14.5661 198.252C14.8851 198.077 15.1967 197.993 15.5008 198.001C15.8084 198.009 16.1192 198.082 16.433 198.219C16.7504 198.357 17.0833 198.534 17.4315 198.748L18.7257 199.468C18.9602 199.62 19.1861 199.719 19.4034 199.768C19.6217 199.819 19.8616 199.773 20.1233 199.629C20.3177 199.523 20.4692 199.329 20.5778 199.048C20.6874 198.769 20.6833 198.484 20.5653 198.191C20.4824 197.986 20.3593 197.831 20.1958 197.728C20.0359 197.625 19.8619 197.571 19.6737 197.565C19.4892 197.559 19.3171 197.601 19.1576 197.688C18.9782 197.786 18.817 197.937 18.674 198.141C18.5346 198.346 18.4014 198.581 18.2743 198.847C18.1508 199.114 18.0244 199.389 17.8952 199.672L15.1023 205.735L14.6496 204.613L16.9114 199.631C17.1206 199.169 17.3105 198.75 17.4812 198.374C17.6518 197.997 17.8379 197.67 18.0393 197.393C18.2407 197.115 18.4909 196.895 18.79 196.731C19.1339 196.543 19.4678 196.458 19.7919 196.477C20.1194 196.497 20.4144 196.614 20.6769 196.827C20.943 197.042 21.1557 197.347 21.3151 197.742C21.4788 198.148 21.5449 198.538 21.5133 198.912C21.4842 199.285 21.3795 199.617 21.199 199.909C21.021 200.199 20.79 200.422 20.5059 200.578C20.1396 200.778 19.783 200.856 19.4363 200.811C19.0896 200.766 18.7334 200.641 18.3677 200.436L16.5809 199.445C16.1801 199.221 15.834 199.11 15.5427 199.112C15.2514 199.113 15.0534 199.143 14.9487 199.2C14.7095 199.331 14.513 199.519 14.3593 199.764C14.2056 200.009 14.1136 200.286 14.0832 200.595C14.0528 200.905 14.1024 201.22 14.2321 201.542C14.3553 201.847 14.5365 202.111 14.7755 202.334C15.017 202.556 15.3022 202.72 15.631 202.826C15.9609 202.935 16.318 202.968 16.7022 202.925C17.0875 202.885 17.4857 202.752 17.8969 202.527L18.2604 203.428C17.752 203.706 17.3121 203.871 16.9406 203.923C16.5692 203.976 16.2612 203.974 16.0166 203.918C15.7719 203.862 15.5856 203.811 15.4577 203.765C15.4075 203.754 15.3585 203.746 15.3105 203.74C15.2624 203.734 15.2134 203.725 15.1632 203.714C14.7814 203.605 14.4417 203.389 14.1442 203.066C13.8491 202.742 13.6235 202.386 13.4673 201.999Z" fill="#27272A"/>
<path d="M43.8807 159.625C43.3083 158.206 43.0611 156.849 43.1391 155.554C43.2171 154.259 43.5728 153.099 44.2062 152.075C44.8396 151.051 45.7079 150.237 46.811 149.633C47.6616 149.168 48.4924 148.945 49.3034 148.964C50.1238 148.987 50.9525 149.181 51.7894 149.546C52.6358 149.915 53.5233 150.385 54.4519 150.958L57.9032 152.877C58.5286 153.281 59.1309 153.547 59.7102 153.676C60.2924 153.812 60.9324 153.689 61.6301 153.307C62.1485 153.023 62.5525 152.506 62.842 151.756C63.1345 151.013 63.1234 150.251 62.8088 149.472C62.5878 148.924 62.2593 148.511 61.8235 148.235C61.3971 147.963 60.933 147.818 60.4313 147.801C59.939 147.787 59.4803 147.897 59.0549 148.13C58.5765 148.392 58.1466 148.794 57.7653 149.337C57.3936 149.884 57.0383 150.511 56.6994 151.22C56.3701 151.932 56.0331 152.665 55.6885 153.42L48.2407 169.589L47.0335 166.596L53.0651 153.312C53.623 152.08 54.1294 150.963 54.5845 149.959C55.0395 148.955 55.5356 148.083 56.0727 147.343C56.6098 146.603 57.2771 146.015 58.0746 145.579C58.9917 145.077 59.8822 144.851 60.7462 144.901C61.6197 144.955 62.4065 145.266 63.1065 145.835C63.816 146.407 64.3833 147.22 64.8083 148.274C65.2448 149.356 65.4209 150.396 65.3367 151.394C65.2592 152.389 64.9798 153.275 64.4986 154.053C64.024 154.827 63.408 155.422 62.6504 155.836C61.6735 156.371 60.7227 156.578 59.7981 156.458C58.8735 156.338 57.9237 156.005 56.9486 155.458L52.1838 152.817C51.1149 152.218 50.192 151.921 49.4152 151.926C48.6383 151.931 48.1104 152.01 47.8312 152.163C47.1933 152.512 46.6693 153.013 46.2595 153.666C45.8496 154.319 45.6041 155.058 45.5231 155.883C45.442 156.708 45.5744 157.549 45.9201 158.406C46.2489 159.221 46.7319 159.926 47.3693 160.52C48.0133 161.111 48.7738 161.549 49.6507 161.832C50.5304 162.122 51.4826 162.21 52.5071 162.095C53.5345 161.988 54.5965 161.634 55.693 161.034L56.6622 163.436C55.3065 164.178 54.1335 164.619 53.143 164.758C52.1525 164.897 51.3311 164.892 50.6788 164.743C50.0265 164.594 49.5297 164.458 49.1884 164.336C49.0547 164.307 48.9239 164.284 48.7958 164.268C48.6678 164.252 48.537 164.23 48.4033 164.2C47.3851 163.908 46.4792 163.332 45.6858 162.471C44.899 161.607 44.2973 160.658 43.8807 159.625Z" fill="#27272A"/>
<path d="M279.385 185.206C279.526 184.454 279.783 183.84 280.156 183.365C280.529 182.891 280.98 182.566 281.509 182.392C282.037 182.218 282.607 182.209 283.216 182.363C283.686 182.482 284.084 182.689 284.41 182.982C284.739 183.28 285.026 183.647 285.271 184.084C285.519 184.525 285.757 185.02 285.985 185.569L286.888 187.53C287.037 187.907 287.212 188.223 287.415 188.477C287.617 188.735 287.91 188.912 288.296 189.01C288.582 189.083 288.883 189.025 289.199 188.836C289.515 188.651 289.711 188.351 289.788 187.938C289.843 187.648 289.817 187.372 289.712 187.111C289.61 186.855 289.459 186.636 289.259 186.452C289.061 186.274 288.845 186.154 288.61 186.095C288.346 186.028 288.064 186.032 287.765 186.109C287.469 186.19 287.159 186.308 286.834 186.463C286.511 186.623 286.181 186.789 285.841 186.96L278.537 190.607L278.833 189.02L284.799 185.994C285.351 185.713 285.853 185.458 286.303 185.229C286.753 185 287.186 184.837 287.6 184.739C288.015 184.641 288.442 184.648 288.883 184.76C289.389 184.888 289.812 185.115 290.152 185.439C290.494 185.767 290.733 186.165 290.869 186.633C291.008 187.105 291.025 187.62 290.92 188.178C290.813 188.752 290.611 189.217 290.313 189.575C290.019 189.933 289.672 190.178 289.27 190.31C288.872 190.443 288.464 190.457 288.045 190.351C287.506 190.214 287.063 189.959 286.717 189.587C286.371 189.214 286.072 188.75 285.818 188.194L284.57 185.491C284.291 184.882 283.993 184.442 283.674 184.17C283.356 183.898 283.12 183.743 282.965 183.704C282.613 183.614 282.267 183.624 281.927 183.733C281.588 183.842 281.293 184.042 281.042 184.333C280.792 184.625 280.624 184.997 280.539 185.452C280.458 185.884 280.47 186.327 280.573 186.782C280.68 187.238 280.875 187.676 281.158 188.095C281.441 188.517 281.806 188.887 282.255 189.204C282.702 189.524 283.229 189.761 283.835 189.915L283.597 191.188C282.848 190.998 282.253 190.755 281.812 190.46C281.371 190.165 281.037 189.874 280.81 189.586C280.583 189.298 280.416 189.071 280.309 188.903C280.262 188.845 280.215 188.79 280.167 188.738C280.119 188.687 280.071 188.632 280.025 188.574C279.686 188.102 279.468 187.559 279.371 186.946C279.278 186.333 279.283 185.753 279.385 185.206Z" fill="#27272A"/>
<path d="M390.578 218.283C390.683 217.719 390.876 217.259 391.156 216.903C391.436 216.547 391.774 216.303 392.171 216.173C392.567 216.042 392.994 216.035 393.451 216.151C393.803 216.24 394.102 216.395 394.346 216.615C394.593 216.838 394.808 217.114 394.992 217.441C395.178 217.772 395.357 218.144 395.528 218.556L396.205 220.026C396.317 220.309 396.448 220.545 396.6 220.736C396.751 220.929 396.972 221.063 397.261 221.136C397.476 221.191 397.702 221.147 397.939 221.005C398.175 220.866 398.322 220.642 398.38 220.332C398.421 220.114 398.402 219.907 398.323 219.712C398.247 219.52 398.133 219.355 397.983 219.218C397.835 219.084 397.673 218.994 397.497 218.949C397.298 218.899 397.087 218.903 396.863 218.96C396.641 219.021 396.408 219.109 396.164 219.226C395.923 219.346 395.674 219.47 395.42 219.599L389.942 222.333L390.164 221.144L394.638 218.874C395.052 218.663 395.428 218.472 395.766 218.3C396.104 218.128 396.428 218.006 396.739 217.933C397.05 217.859 397.371 217.865 397.701 217.948C398.081 218.045 398.398 218.214 398.653 218.457C398.91 218.704 399.089 219.002 399.191 219.353C399.295 219.707 399.307 220.093 399.229 220.512C399.149 220.942 398.997 221.291 398.774 221.559C398.553 221.828 398.293 222.012 397.991 222.111C397.693 222.211 397.387 222.221 397.073 222.141C396.668 222.039 396.336 221.848 396.077 221.568C395.817 221.289 395.593 220.941 395.402 220.524L394.466 218.497C394.257 218.04 394.033 217.71 393.795 217.506C393.556 217.302 393.379 217.186 393.263 217.156C392.999 217.089 392.739 217.096 392.485 217.178C392.23 217.26 392.009 217.41 391.821 217.628C391.633 217.847 391.507 218.126 391.443 218.467C391.383 218.791 391.391 219.124 391.469 219.465C391.549 219.807 391.695 220.135 391.908 220.45C392.119 220.767 392.394 221.044 392.73 221.281C393.066 221.521 393.461 221.699 393.915 221.814L393.737 222.769C393.175 222.627 392.729 222.445 392.398 222.224C392.067 222.002 391.817 221.784 391.647 221.568C391.476 221.352 391.351 221.182 391.271 221.056C391.236 221.012 391.2 220.971 391.164 220.932C391.128 220.894 391.092 220.853 391.057 220.809C390.803 220.455 390.64 220.048 390.567 219.588C390.498 219.128 390.501 218.693 390.578 218.283Z" fill="#27272A"/>
<path d="M386.03 129.005C386.136 128.441 386.329 127.981 386.609 127.625C386.889 127.269 387.227 127.026 387.623 126.895C388.02 126.765 388.446 126.758 388.904 126.874C389.256 126.963 389.555 127.118 389.799 127.338C390.046 127.561 390.261 127.836 390.445 128.164C390.631 128.495 390.81 128.866 390.981 129.278L391.658 130.749C391.769 131.031 391.901 131.268 392.053 131.459C392.204 131.652 392.424 131.785 392.713 131.859C392.928 131.913 393.154 131.87 393.391 131.728C393.628 131.589 393.775 131.365 393.833 131.055C393.874 130.837 393.855 130.63 393.776 130.435C393.699 130.243 393.586 130.078 393.436 129.94C393.288 129.806 393.125 129.717 392.949 129.672C392.751 129.622 392.54 129.625 392.316 129.683C392.094 129.743 391.861 129.832 391.617 129.948C391.375 130.069 391.127 130.193 390.872 130.321L385.394 133.056L385.617 131.866L390.091 129.596C390.505 129.386 390.881 129.194 391.219 129.023C391.557 128.851 391.881 128.728 392.192 128.655C392.503 128.582 392.823 128.587 393.154 128.671C393.534 128.767 393.851 128.937 394.105 129.18C394.362 129.427 394.541 129.725 394.643 130.076C394.747 130.429 394.76 130.816 394.682 131.235C394.601 131.665 394.45 132.014 394.226 132.282C394.006 132.551 393.745 132.735 393.444 132.834C393.146 132.934 392.839 132.944 392.526 132.864C392.121 132.761 391.789 132.57 391.529 132.291C391.27 132.012 391.045 131.664 390.855 131.247L389.919 129.219C389.71 128.763 389.486 128.433 389.247 128.229C389.009 128.025 388.831 127.908 388.716 127.879C388.451 127.812 388.192 127.819 387.937 127.901C387.682 127.982 387.461 128.133 387.273 128.351C387.085 128.57 386.959 128.849 386.896 129.19C386.835 129.514 386.844 129.846 386.921 130.188C387.002 130.53 387.148 130.858 387.36 131.172C387.572 131.489 387.846 131.766 388.183 132.004C388.518 132.244 388.913 132.422 389.368 132.537L389.189 133.492C388.628 133.35 388.181 133.168 387.851 132.946C387.52 132.725 387.269 132.506 387.099 132.291C386.929 132.075 386.804 131.904 386.723 131.779C386.688 131.735 386.653 131.693 386.617 131.655C386.581 131.617 386.545 131.575 386.51 131.531C386.256 131.177 386.093 130.77 386.02 130.31C385.95 129.851 385.954 129.416 386.03 129.005Z" fill="#27272A"/>
<path d="M100.221 138.438C100.327 137.874 100.519 137.414 100.799 137.058C101.079 136.702 101.418 136.459 101.814 136.328C102.211 136.198 102.637 136.19 103.095 136.306C103.447 136.396 103.745 136.55 103.99 136.77C104.237 136.994 104.452 137.269 104.636 137.597C104.822 137.927 105.001 138.299 105.172 138.711L105.849 140.181C105.96 140.464 106.092 140.701 106.244 140.891C106.395 141.085 106.615 141.218 106.904 141.291C107.119 141.346 107.345 141.302 107.582 141.161C107.819 141.022 107.966 140.797 108.024 140.487C108.065 140.269 108.045 140.063 107.967 139.867C107.89 139.675 107.777 139.51 107.626 139.373C107.478 139.239 107.316 139.149 107.14 139.105C106.942 139.054 106.731 139.058 106.506 139.115C106.285 139.176 106.052 139.265 105.808 139.381C105.566 139.501 105.318 139.625 105.063 139.754L99.5853 142.489L99.8076 141.299L104.281 139.029C104.696 138.818 105.072 138.627 105.41 138.455C105.748 138.284 106.072 138.161 106.383 138.088C106.693 138.015 107.014 138.02 107.345 138.104C107.725 138.2 108.042 138.37 108.296 138.613C108.553 138.859 108.732 139.158 108.834 139.508C108.938 139.862 108.951 140.249 108.873 140.667C108.792 141.097 108.641 141.447 108.417 141.715C108.197 141.983 107.936 142.167 107.635 142.266C107.337 142.366 107.03 142.376 106.716 142.297C106.312 142.194 105.98 142.003 105.72 141.724C105.461 141.444 105.236 141.096 105.046 140.68L104.11 138.652C103.901 138.195 103.677 137.865 103.438 137.661C103.199 137.457 103.022 137.341 102.907 137.311C102.642 137.244 102.383 137.252 102.128 137.333C101.873 137.415 101.652 137.565 101.464 137.784C101.276 138.002 101.15 138.282 101.087 138.622C101.026 138.946 101.035 139.279 101.112 139.62C101.192 139.963 101.339 140.291 101.551 140.605C101.763 140.922 102.037 141.199 102.373 141.436C102.709 141.677 103.104 141.854 103.559 141.97L103.38 142.925C102.818 142.782 102.372 142.6 102.042 142.379C101.711 142.158 101.46 141.939 101.29 141.723C101.12 141.508 100.995 141.337 100.914 141.211C100.879 141.167 100.844 141.126 100.808 141.088C100.772 141.049 100.736 141.008 100.701 140.964C100.447 140.61 100.284 140.203 100.211 139.743C100.141 139.283 100.145 138.849 100.221 138.438Z" fill="#27272A"/>
<path d="M128.556 206.858C128.046 206.594 127.644 206.269 127.351 205.882C127.057 205.495 126.876 205.078 126.807 204.633C126.738 204.187 126.788 203.744 126.956 203.304C127.086 202.964 127.269 202.698 127.505 202.505C127.745 202.312 128.029 202.165 128.357 202.064C128.689 201.963 129.058 201.88 129.463 201.816L130.917 201.52C131.194 201.482 131.431 201.411 131.628 201.306C131.828 201.203 131.981 201.012 132.087 200.733C132.166 200.526 132.155 200.28 132.055 199.997C131.957 199.714 131.768 199.5 131.488 199.355C131.291 199.254 131.097 199.217 130.905 199.245C130.717 199.271 130.549 199.343 130.401 199.461C130.257 199.577 130.153 199.72 130.088 199.89C130.015 200.081 129.991 200.3 130.014 200.548C130.041 200.793 130.093 201.059 130.169 201.343C130.248 201.625 130.331 201.916 130.416 202.214L132.232 208.626L131.157 208.07L129.64 202.823C129.499 202.337 129.372 201.896 129.257 201.5C129.142 201.104 129.071 200.735 129.044 200.394C129.017 200.052 129.064 199.723 129.186 199.404C129.326 199.038 129.525 198.756 129.784 198.56C130.047 198.362 130.348 198.259 130.686 198.249C131.029 198.239 131.389 198.332 131.768 198.528C132.156 198.729 132.46 198.981 132.68 199.285C132.9 199.587 133.036 199.907 133.088 200.245C133.142 200.581 133.111 200.9 132.995 201.203C132.846 201.593 132.625 201.884 132.332 202.075C132.038 202.267 131.686 202.404 131.274 202.486L129.268 202.898C128.816 202.988 128.48 203.129 128.259 203.32C128.039 203.511 127.907 203.662 127.864 203.774C127.767 204.028 127.74 204.299 127.782 204.584C127.824 204.87 127.934 205.14 128.112 205.394C128.29 205.648 128.533 205.855 128.841 206.014C129.134 206.165 129.444 206.248 129.771 206.261C130.099 206.272 130.423 206.211 130.743 206.077C131.065 205.945 131.358 205.738 131.623 205.456C131.89 205.174 132.108 204.815 132.275 204.377L133.138 204.823C132.931 205.365 132.703 205.776 132.454 206.057C132.205 206.338 131.969 206.537 131.746 206.654C131.524 206.771 131.349 206.853 131.221 206.902C131.176 206.926 131.133 206.952 131.093 206.978C131.052 207.005 131.009 207.031 130.964 207.055C130.602 207.22 130.202 207.277 129.765 207.226C129.33 207.172 128.927 207.05 128.556 206.858Z" fill="#27272A"/>
<path d="M264.019 290.416C263.45 290.339 262.971 290.167 262.581 289.902C262.191 289.637 261.903 289.307 261.717 288.912C261.531 288.517 261.462 288.085 261.509 287.615C261.546 287.254 261.654 286.943 261.834 286.684C262.017 286.422 262.256 286.19 262.55 285.987C262.848 285.781 263.186 285.58 263.565 285.386L264.909 284.623C265.17 284.495 265.383 284.35 265.548 284.186C265.715 284.023 265.814 283.792 265.844 283.496C265.866 283.275 265.79 283.049 265.617 282.816C265.446 282.583 265.205 282.446 264.892 282.403C264.673 282.373 264.473 282.403 264.292 282.493C264.115 282.581 263.97 282.704 263.857 282.864C263.747 283.021 263.683 283.19 263.665 283.371C263.645 283.574 263.679 283.788 263.767 284.012C263.859 284.234 263.98 284.465 264.13 284.706C264.283 284.945 264.441 285.19 264.604 285.441L268.084 290.85L266.885 290.686L264.007 286.271C263.74 285.862 263.498 285.491 263.28 285.158C263.062 284.824 262.895 284.502 262.778 284.191C262.661 283.88 262.619 283.555 262.653 283.215C262.692 282.825 262.813 282.495 263.014 282.224C263.218 281.951 263.485 281.754 263.814 281.633C264.146 281.509 264.523 281.476 264.945 281.534C265.379 281.593 265.743 281.728 266.039 281.94C266.334 282.15 266.553 282.405 266.694 282.705C266.835 283.002 266.89 283.312 266.857 283.634C266.815 284.049 266.676 284.396 266.44 284.673C266.204 284.95 265.896 285.196 265.514 285.411L263.662 286.465C263.245 286.7 262.954 286.944 262.788 287.197C262.623 287.449 262.535 287.635 262.523 287.754C262.495 288.025 262.54 288.288 262.658 288.541C262.775 288.795 262.954 289.012 263.196 289.191C263.437 289.37 263.73 289.483 264.073 289.53C264.4 289.574 264.725 289.548 265.049 289.452C265.372 289.353 265.673 289.187 265.95 288.956C266.23 288.725 266.462 288.432 266.646 288.079C266.833 287.727 266.949 287.317 266.996 286.851L267.959 286.982C267.901 287.558 267.788 288.02 267.619 288.367C267.45 288.713 267.272 288.978 267.085 289.162C266.898 289.346 266.749 289.482 266.637 289.57C266.599 289.607 266.564 289.646 266.532 289.684C266.499 289.723 266.464 289.761 266.426 289.799C266.116 290.074 265.74 290.261 265.3 290.359C264.859 290.453 264.432 290.472 264.019 290.416Z" fill="#27272A"/>
<path d="M98.8452 313.651C98.3355 313.387 97.9339 313.062 97.6404 312.675C97.3468 312.288 97.1657 311.871 97.0969 311.426C97.0281 310.98 97.0777 310.537 97.2457 310.097C97.3752 309.757 97.5582 309.491 97.7947 309.298C98.0347 309.105 98.3188 308.958 98.647 308.857C98.9788 308.756 99.3472 308.673 99.7522 308.609L101.206 308.313C101.484 308.275 101.721 308.204 101.918 308.099C102.117 307.996 102.27 307.805 102.376 307.526C102.455 307.319 102.445 307.073 102.345 306.79C102.247 306.507 102.058 306.293 101.778 306.148C101.581 306.047 101.387 306.01 101.195 306.038C101.006 306.064 100.839 306.136 100.691 306.254C100.547 306.37 100.443 306.513 100.378 306.683C100.305 306.874 100.28 307.093 100.304 307.34C100.331 307.586 100.382 307.851 100.458 308.135C100.538 308.418 100.62 308.709 100.706 309.007L102.521 315.419L101.446 314.863L99.9301 309.616C99.7891 309.13 99.6612 308.689 99.5465 308.293C99.4317 307.897 99.3608 307.528 99.3338 307.187C99.3068 306.845 99.3541 306.516 99.4755 306.197C99.6152 305.831 99.8146 305.549 100.074 305.353C100.336 305.155 100.637 305.052 100.976 305.042C101.318 305.032 101.679 305.125 102.057 305.32C102.446 305.522 102.75 305.774 102.969 306.078C103.19 306.38 103.326 306.7 103.378 307.038C103.431 307.374 103.4 307.693 103.285 307.996C103.136 308.386 102.915 308.677 102.621 308.868C102.328 309.06 101.975 309.197 101.563 309.279L99.5574 309.691C99.1059 309.781 98.7698 309.922 98.549 310.113C98.3282 310.304 98.1966 310.455 98.1541 310.566C98.0569 310.821 98.0294 311.092 98.0716 311.377C98.1138 311.663 98.2239 311.933 98.4019 312.187C98.5799 312.441 98.8228 312.648 99.1307 312.807C99.4234 312.958 99.7333 313.041 100.06 313.054C100.389 313.065 100.713 313.004 101.032 312.87C101.354 312.738 101.648 312.531 101.913 312.249C102.18 311.967 102.397 311.608 102.564 311.17L103.427 311.616C103.221 312.158 102.993 312.569 102.744 312.85C102.495 313.131 102.259 313.33 102.036 313.447C101.813 313.564 101.638 313.646 101.511 313.695C101.465 313.719 101.423 313.744 101.382 313.771C101.342 313.798 101.299 313.823 101.253 313.848C100.891 314.013 100.492 314.07 100.055 314.019C99.6194 313.965 99.2161 313.843 98.8452 313.651Z" fill="#27272A"/>
<path d="M205.843 118.202C204.44 118.811 203.087 119.095 201.785 119.054C200.483 119.013 199.308 118.691 198.259 118.09C197.209 117.489 196.363 116.648 195.719 115.567C195.223 114.734 194.97 113.914 194.962 113.107C194.956 112.291 195.122 111.461 195.46 110.618C195.8 109.766 196.242 108.87 196.784 107.931L198.59 104.444C198.973 103.811 199.22 103.205 199.329 102.625C199.445 102.042 199.3 101.409 198.893 100.726C198.59 100.218 198.058 99.8306 197.295 99.5636C196.539 99.2935 195.776 99.3259 195.004 99.6605C194.462 99.8957 194.06 100.234 193.798 100.675C193.54 101.107 193.41 101.572 193.411 102.072C193.414 102.562 193.54 103.015 193.788 103.432C194.067 103.9 194.486 104.317 195.044 104.681C195.605 105.035 196.247 105.371 196.969 105.688C197.695 105.996 198.442 106.31 199.211 106.632L215.688 113.587L212.728 114.872L199.193 109.244C197.939 108.724 196.8 108.251 195.777 107.827C194.755 107.402 193.863 106.933 193.102 106.42C192.341 105.906 191.728 105.259 191.263 104.478C190.728 103.58 190.47 102.701 190.491 101.84C190.515 100.97 190.8 100.178 191.346 99.4662C191.896 98.7445 192.692 98.1576 193.734 97.7053C194.805 97.241 195.842 97.0367 196.846 97.0925C197.846 97.1418 198.745 97.3948 199.542 97.8517C200.335 98.3021 200.953 98.8982 201.395 99.6401C201.965 100.597 202.206 101.537 202.117 102.46C202.029 103.383 201.727 104.337 201.212 105.322L198.727 110.135C198.163 111.214 197.897 112.141 197.929 112.913C197.961 113.686 198.058 114.209 198.221 114.482C198.593 115.107 199.114 115.614 199.784 116.003C200.453 116.393 201.203 116.616 202.033 116.674C202.863 116.731 203.702 116.576 204.55 116.208C205.356 115.858 206.047 115.358 206.621 114.708C207.192 114.051 207.604 113.282 207.858 112.402C208.119 111.519 208.174 110.569 208.024 109.553C207.88 108.535 207.488 107.488 206.849 106.414L209.225 105.383C210.017 106.711 210.499 107.865 210.672 108.847C210.846 109.828 210.869 110.645 210.743 111.298C210.616 111.951 210.497 112.449 210.386 112.792C210.361 112.925 210.343 113.056 210.331 113.184C210.32 113.312 210.302 113.443 210.277 113.576C210.019 114.597 209.472 115.514 208.636 116.327C207.796 117.134 206.865 117.759 205.843 118.202Z" fill="#27272A"/>
<path d="M146.323 23.7247C146.079 23.2049 145.958 22.7009 145.96 22.2125C145.962 21.7242 146.07 21.2801 146.284 20.8803C146.498 20.4806 146.804 20.1543 147.202 19.9014C147.509 19.7064 147.814 19.603 148.116 19.5912C148.422 19.5803 148.735 19.6337 149.054 19.7512C149.378 19.8698 149.718 20.0257 150.076 20.2189L151.402 20.8586C151.644 20.9956 151.874 21.0815 152.092 21.1163C152.312 21.1537 152.548 21.0924 152.799 20.9324C152.987 20.8136 153.126 20.6098 153.218 20.3211C153.311 20.035 153.291 19.7491 153.157 19.4635C153.063 19.2628 152.932 19.1157 152.764 19.0223C152.599 18.9299 152.423 18.8864 152.236 18.8919C152.053 18.8983 151.884 18.9503 151.731 19.0478C151.558 19.1575 151.406 19.3189 151.276 19.5319C151.149 19.746 151.03 19.9902 150.919 20.2644C150.811 20.5397 150.701 20.8232 150.589 21.1149L148.158 27.3657L147.645 26.2696L149.609 21.1361C149.791 20.6602 149.956 20.2284 150.104 19.8405C150.252 19.4526 150.419 19.1133 150.603 18.8226C150.787 18.5319 151.024 18.2952 151.311 18.1124C151.642 17.9022 151.969 17.7964 152.292 17.7949C152.618 17.7945 152.918 17.8929 153.191 18.0902C153.467 18.2885 153.696 18.5806 153.876 18.9665C154.062 19.3627 154.15 19.7493 154.139 20.1263C154.132 20.5018 154.046 20.8414 153.884 21.145C153.723 21.4471 153.506 21.685 153.233 21.8587C152.881 22.0826 152.531 22.1829 152.184 22.1596C151.837 22.1363 151.476 22.0333 151.101 21.8508L149.271 20.9708C148.86 20.7711 148.51 20.6813 148.221 20.7015C147.931 20.7216 147.736 20.7637 147.636 20.8277C147.406 20.9739 147.221 21.1745 147.082 21.4296C146.943 21.6847 146.868 21.9681 146.855 22.28C146.842 22.5918 146.909 22.9046 147.056 23.2185C147.196 23.517 147.391 23.7704 147.641 23.9788C147.893 24.1857 148.186 24.332 148.518 24.4178C148.852 24.5062 149.209 24.5167 149.588 24.4495C149.968 24.3848 150.356 24.2267 150.752 23.9754L151.164 24.8554C150.675 25.1661 150.247 25.3592 149.881 25.4348C149.515 25.5104 149.209 25.5279 148.963 25.4873C148.717 25.4466 148.529 25.4075 148.399 25.3697C148.349 25.3616 148.3 25.3562 148.252 25.3533C148.204 25.3504 148.154 25.345 148.104 25.3369C147.719 25.2513 147.369 25.0561 147.055 24.7514C146.744 24.4451 146.5 24.1029 146.323 23.7247Z" fill="#27272A"/>
<path d="M310.29 45.1314C310.047 44.6117 309.926 44.1076 309.927 43.6193C309.929 43.1309 310.037 42.6868 310.251 42.2871C310.465 41.8873 310.771 41.561 311.169 41.3082C311.476 41.1132 311.781 41.0098 312.084 40.9979C312.39 40.9871 312.702 41.0404 313.022 41.158C313.345 41.2765 313.685 41.4324 314.043 41.6256L315.37 42.2653C315.611 42.4024 315.841 42.4883 316.06 42.523C316.279 42.5604 316.515 42.4991 316.767 42.3392C316.954 42.2203 317.093 42.0166 317.185 41.7279C317.278 41.4417 317.258 41.1558 317.124 40.8702C317.031 40.6695 316.899 40.5225 316.731 40.429C316.567 40.3366 316.391 40.2932 316.204 40.2986C316.02 40.3051 315.851 40.3571 315.698 40.4546C315.525 40.5642 315.374 40.7256 315.243 40.9387C315.116 41.1528 314.997 41.3969 314.886 41.6712C314.779 41.9465 314.669 42.2299 314.556 42.5216L312.125 48.7724L311.612 47.6764L313.577 42.5429C313.758 42.067 313.923 41.6351 314.072 41.2472C314.22 40.8593 314.386 40.5201 314.57 40.2294C314.755 39.9387 314.991 39.7019 315.279 39.5192C315.61 39.309 315.936 39.2031 316.259 39.2016C316.586 39.2012 316.885 39.2996 317.158 39.4969C317.435 39.6952 317.663 39.9873 317.844 40.3732C318.029 40.7695 318.117 41.1561 318.107 41.5331C318.099 41.9085 318.014 42.2481 317.851 42.5517C317.691 42.8539 317.474 43.0918 317.2 43.2654C316.848 43.4893 316.498 43.5896 316.151 43.5663C315.804 43.543 315.444 43.4401 315.069 43.2575L313.238 42.3775C312.827 42.1778 312.477 42.0881 312.188 42.1082C311.899 42.1284 311.704 42.1704 311.603 42.2344C311.373 42.3806 311.188 42.5813 311.05 42.8364C310.911 43.0914 310.835 43.3749 310.822 43.6867C310.81 43.9985 310.877 44.3114 311.024 44.6253C311.163 44.9237 311.358 45.1772 311.608 45.3855C311.861 45.5924 312.153 45.7387 312.486 45.8245C312.82 45.9129 313.176 45.9235 313.555 45.8562C313.936 45.7915 314.324 45.6335 314.719 45.3822L315.131 46.2621C314.642 46.5728 314.215 46.766 313.849 46.8416C313.483 46.9171 313.177 46.9346 312.93 46.894C312.684 46.8534 312.496 46.8142 312.367 46.7764C312.316 46.7684 312.267 46.7629 312.219 46.76C312.171 46.7572 312.122 46.7517 312.071 46.7437C311.686 46.658 311.336 46.4629 311.023 46.1581C310.711 45.8519 310.467 45.5096 310.29 45.1314Z" fill="#27272A"/>
<path d="M233.799 225.645C233.556 225.125 233.435 224.621 233.437 224.132C233.438 223.644 233.546 223.2 233.761 222.8C233.975 222.4 234.281 222.074 234.679 221.821C234.986 221.626 235.291 221.523 235.593 221.511C235.899 221.5 236.212 221.554 236.531 221.671C236.854 221.79 237.195 221.946 237.553 222.139L238.879 222.779C239.121 222.916 239.351 223.001 239.569 223.036C239.789 223.074 240.024 223.012 240.276 222.852C240.463 222.734 240.603 222.53 240.695 222.241C240.788 221.955 240.768 221.669 240.634 221.383C240.54 221.183 240.409 221.036 240.241 220.942C240.076 220.85 239.9 220.806 239.713 220.812C239.529 220.818 239.361 220.87 239.207 220.968C239.035 221.077 238.883 221.239 238.753 221.452C238.626 221.666 238.507 221.91 238.396 222.184C238.288 222.46 238.178 222.743 238.066 223.035L235.635 229.286L235.122 228.19L237.086 223.056C237.268 222.58 237.433 222.148 237.581 221.76C237.729 221.373 237.896 221.033 238.08 220.743C238.264 220.452 238.5 220.215 238.788 220.032C239.119 219.822 239.446 219.716 239.769 219.715C240.095 219.714 240.395 219.813 240.668 220.01C240.944 220.208 241.173 220.5 241.353 220.886C241.539 221.283 241.626 221.669 241.616 222.046C241.608 222.422 241.523 222.761 241.36 223.065C241.2 223.367 240.983 223.605 240.71 223.779C240.357 224.003 240.008 224.103 239.661 224.079C239.314 224.056 238.953 223.953 238.578 223.771L236.748 222.891C236.337 222.691 235.987 222.601 235.697 222.621C235.408 222.642 235.213 222.684 235.113 222.748C234.882 222.894 234.698 223.094 234.559 223.35C234.42 223.605 234.344 223.888 234.332 224.2C234.319 224.512 234.386 224.825 234.533 225.138C234.673 225.437 234.868 225.69 235.118 225.899C235.37 226.106 235.663 226.252 235.995 226.338C236.329 226.426 236.686 226.437 237.065 226.369C237.445 226.305 237.833 226.147 238.229 225.895L238.641 226.775C238.152 227.086 237.724 227.279 237.358 227.355C236.992 227.43 236.686 227.448 236.44 227.407C236.194 227.367 236.006 227.327 235.876 227.29C235.826 227.282 235.777 227.276 235.729 227.273C235.681 227.27 235.631 227.265 235.581 227.257C235.195 227.171 234.846 226.976 234.532 226.671C234.221 226.365 233.976 226.023 233.799 225.645Z" fill="#27272A"/>
<path d="M23.1479 58.6246C22.9046 58.1048 22.7837 57.6008 22.7853 57.1124C22.7869 56.6241 22.8948 56.18 23.109 55.7802C23.3232 55.3805 23.6293 55.0542 24.0274 54.8013C24.3343 54.6063 24.639 54.5029 24.9415 54.4911C25.2475 54.4803 25.5603 54.5336 25.8797 54.6511C26.2028 54.7697 26.5433 54.9256 26.9013 55.1188L28.2275 55.7585C28.469 55.8955 28.699 55.9814 28.9175 56.0162C29.1372 56.0536 29.3729 55.9923 29.6247 55.8323C29.8118 55.7135 29.9513 55.5097 30.0432 55.221C30.1364 54.9349 30.1161 54.649 29.9824 54.3634C29.8884 54.1627 29.7574 54.0156 29.5892 53.9222C29.4246 53.8298 29.2487 53.7863 29.0614 53.7918C28.8778 53.7982 28.7093 53.8502 28.5558 53.9477C28.3831 54.0574 28.2316 54.2188 28.1011 54.4318C27.9742 54.6459 27.8552 54.8901 27.744 55.1643C27.6364 55.4396 27.5265 55.7231 27.4141 56.0148L24.9831 62.2656L24.47 61.1695L26.4347 56.036C26.6164 55.5601 26.7813 55.1283 26.9295 54.7404C27.0777 54.3525 27.244 54.0132 27.4284 53.7225C27.6127 53.4318 27.8488 53.1951 28.1366 53.0123C28.4675 52.8021 28.7944 52.6963 29.1172 52.6948C29.4437 52.6944 29.7433 52.7928 30.0161 52.9901C30.2925 53.1884 30.5211 53.4805 30.7017 53.8664C30.8872 54.2626 30.9749 54.6493 30.9647 55.0262C30.9569 55.4017 30.8717 55.7413 30.7089 56.0449C30.5486 56.347 30.3317 56.5849 30.0583 56.7586C29.7058 56.9825 29.3561 57.0828 29.0092 57.0595C28.6623 57.0362 28.3014 56.9332 27.9267 56.7507L26.096 55.8707C25.6852 55.671 25.3352 55.5812 25.0459 55.6014C24.7567 55.6215 24.5617 55.6636 24.461 55.7276C24.2308 55.8738 24.0463 56.0745 23.9075 56.3295C23.7687 56.5846 23.6929 56.868 23.6802 57.1799C23.6675 57.4917 23.7347 57.8045 23.8816 58.1184C24.0213 58.4169 24.2162 58.6703 24.4662 58.8787C24.7186 59.0856 25.0111 59.2319 25.3437 59.3177C25.6775 59.4061 26.034 59.4166 26.4132 59.3494C26.7936 59.2847 27.1816 59.1266 27.5773 58.8753L27.9892 59.7553C27.5 60.066 27.0724 60.2591 26.7065 60.3347C26.3405 60.4103 26.0345 60.4278 25.7884 60.3872C25.5422 60.3466 25.3543 60.3074 25.2246 60.2696C25.1742 60.2615 25.125 60.2561 25.077 60.2532C25.029 60.2503 24.9798 60.2449 24.9293 60.2368C24.5439 60.1512 24.1943 59.956 23.8805 59.6513C23.5692 59.345 23.3249 59.0028 23.1479 58.6246Z" fill="#27272A"/>
<path d="M339.464 169.042C339.221 168.522 339.1 168.018 339.102 167.53C339.103 167.042 339.211 166.597 339.425 166.198C339.639 165.798 339.946 165.472 340.344 165.219C340.651 165.024 340.955 164.92 341.258 164.909C341.564 164.898 341.877 164.951 342.196 165.069C342.519 165.187 342.86 165.343 343.218 165.536L344.544 166.176C344.785 166.313 345.015 166.399 345.234 166.434C345.453 166.471 345.689 166.41 345.941 166.25C346.128 166.131 346.268 165.927 346.359 165.638C346.453 165.352 346.432 165.066 346.299 164.781C346.205 164.58 346.074 164.433 345.905 164.34C345.741 164.247 345.565 164.204 345.378 164.209C345.194 164.216 345.026 164.268 344.872 164.365C344.699 164.475 344.548 164.636 344.417 164.849C344.29 165.063 344.171 165.308 344.06 165.582C343.953 165.857 343.843 166.141 343.73 166.432L341.299 172.683L340.786 171.587L342.751 166.454C342.933 165.978 343.098 165.546 343.246 165.158C343.394 164.77 343.56 164.431 343.745 164.14C343.929 163.849 344.165 163.613 344.453 163.43C344.784 163.22 345.111 163.114 345.434 163.112C345.76 163.112 346.06 163.21 346.332 163.408C346.609 163.606 346.837 163.898 347.018 164.284C347.204 164.68 347.291 165.067 347.281 165.444C347.273 165.819 347.188 166.159 347.025 166.462C346.865 166.765 346.648 167.002 346.375 167.176C346.022 167.4 345.672 167.5 345.325 167.477C344.979 167.454 344.618 167.351 344.243 167.168L342.412 166.288C342.001 166.088 341.651 165.999 341.362 166.019C341.073 166.039 340.878 166.081 340.777 166.145C340.547 166.291 340.363 166.492 340.224 166.747C340.085 167.002 340.009 167.286 339.996 167.597C339.984 167.909 340.051 168.222 340.198 168.536C340.338 168.834 340.532 169.088 340.782 169.296C341.035 169.503 341.327 169.649 341.66 169.735C341.994 169.824 342.35 169.834 342.729 169.767C343.11 169.702 343.498 169.544 343.894 169.293L344.306 170.173C343.816 170.483 343.389 170.677 343.023 170.752C342.657 170.828 342.351 170.845 342.105 170.805C341.859 170.764 341.671 170.725 341.541 170.687C341.491 170.679 341.441 170.674 341.393 170.671C341.345 170.668 341.296 170.662 341.246 170.654C340.86 170.569 340.511 170.373 340.197 170.069C339.885 169.763 339.641 169.42 339.464 169.042Z" fill="#27272A"/>
<path d="M158.575 165.183L160.007 156.456H160.859L159.427 165.183H158.575ZM154.603 162.763L154.74 161.91H161.251L161.115 162.763H154.603ZM155.507 165.183L156.939 156.456H157.791L156.359 165.183H155.507ZM155.115 159.729L155.251 158.876H161.763L161.626 159.729H155.115Z" fill="#27272A"/>
<path d="M283.743 245.514L281.934 227.674L283.537 227.094L285.345 244.933L283.743 245.514ZM275.026 243.541L274.843 241.801L287.087 237.367L287.27 239.107L275.026 243.541ZM277.973 247.603L276.164 229.764L277.767 229.183L279.576 247.023L277.973 247.603ZM274.423 237.33L274.239 235.59L286.484 231.156L286.667 232.896L274.423 237.33Z" fill="#27272A"/>
<path d="M302.383 98.0258L301.478 89.1062L302.28 88.816L303.184 97.7356L302.383 98.0258ZM298.024 97.0395L297.933 96.1696L304.055 93.9526L304.146 94.8224L298.024 97.0395ZM299.498 99.0705L298.593 90.1509L299.395 89.8607L300.299 98.7803L299.498 99.0705ZM297.723 93.9339L297.631 93.0641L303.753 90.847L303.845 91.7168L297.723 93.9339Z" fill="#27272A"/>
<path d="M201.188 42.1518L200.284 33.2321L201.085 32.942L201.99 41.8616L201.188 42.1518ZM196.83 41.1655L196.738 40.2956L202.861 38.0785L202.952 38.9484L196.83 41.1655ZM198.303 43.1965L197.399 34.2768L198.201 33.9867L199.105 42.9063L198.303 43.1965ZM196.528 38.0599L196.437 37.19L202.559 34.9729L202.651 35.8428L196.528 38.0599Z" fill="#27272A"/>
<path d="M306.377 314.844L305.473 305.925L306.274 305.634L307.179 314.554L306.377 314.844ZM302.019 313.858L301.927 312.988L308.05 310.771L308.141 311.641L302.019 313.858ZM303.492 315.889L302.588 306.969L303.39 306.679L304.294 315.599L303.492 315.889ZM301.717 310.752L301.626 309.882L307.748 307.665L307.84 308.535L301.717 310.752Z" fill="#27272A"/>
<path d="M390.426 191.721L388.015 167.935L390.152 167.161L392.563 190.947L390.426 191.721ZM378.804 189.091L378.56 186.771L394.886 180.859L395.13 183.179L378.804 189.091ZM382.733 194.507L380.322 170.721L382.459 169.947L384.87 193.733L382.733 194.507ZM378 180.809L377.755 178.49L394.081 172.577L394.326 174.897L378 180.809Z" fill="#27272A"/>
<path d="M23.2846 25.1699L22.3803 16.2502L23.1817 15.96L24.0859 24.8797L23.2846 25.1699ZM18.9261 24.1836L18.8346 23.3137L24.9569 21.0966L25.0484 21.9665L18.9261 24.1836ZM20.3997 26.2146L19.4955 17.2949L20.2969 17.0047L21.2011 25.9244L20.3997 26.2146ZM18.6246 21.078L18.533 20.2081L24.6553 17.991L24.7468 18.8609L18.6246 21.078Z" fill="#27272A"/>
<path d="M128.865 271.977L130.297 263.25H131.149L129.717 271.977H128.865ZM124.893 269.557L125.03 268.704H131.541L131.405 269.557H124.893ZM125.797 271.977L127.228 263.25H128.081L126.649 271.977H125.797ZM125.405 266.523L125.541 265.67H132.052L131.916 266.523H125.405Z" fill="#27272A"/>
<path d="M249.718 91.2203L257.536 82.7687L258.384 83.5252L250.566 91.9769L249.718 91.2203ZM247.54 84.9983L248.3 84.1699L254.778 89.9499L254.018 90.7783L247.54 84.9983ZM246.666 88.4968L254.483 80.0451L255.331 80.8017L247.513 89.2533L246.666 88.4968ZM250.271 82.0721L251.031 81.2437L257.51 87.0236L256.749 87.8521L250.271 82.0721Z" fill="#27272A"/>
<path d="M380.934 263.235L386.797 256.896L387.433 257.463L381.57 263.802L380.934 263.235ZM379.3 258.568L379.87 257.947L384.729 262.282L384.159 262.903L379.3 258.568ZM378.644 261.192L384.508 254.853L385.144 255.421L379.28 261.759L378.644 261.192ZM381.349 256.373L381.919 255.752L386.777 260.087L386.207 260.708L381.349 256.373Z" fill="#27272A"/>
<path d="M355.359 34.5941L362.688 26.6707L363.483 27.3799L356.154 35.3034L355.359 34.5941ZM353.317 28.761L354.029 27.9844L360.102 33.4031L359.39 34.1797L353.317 28.761ZM352.497 32.0408L359.826 24.1174L360.621 24.8266L353.292 32.7501L352.497 32.0408ZM355.877 26.0177L356.59 25.241L362.663 30.6597L361.951 31.4364L355.877 26.0177Z" fill="#27272A"/>
<path d="M33.7756 246.915L29.5772 238.894L30.1773 238.289L34.3757 246.31L33.7756 246.915ZM29.5353 247.793L29.1229 247.012L33.7074 242.388L34.1198 243.169L29.5353 247.793ZM31.6154 249.094L27.417 241.073L28.0171 240.467L32.2154 248.488L31.6154 249.094ZM28.0853 244.994L27.6729 244.214L32.2573 239.59L32.6698 240.371L28.0853 244.994Z" fill="#27272A"/>
<path d="M109.972 72.8954L112.582 49.3871L114.85 49.2285L112.239 72.7368L109.972 72.8954ZM99.0747 67.1887L99.3204 64.8936L116.642 63.6816L116.396 65.9767L99.0747 67.1887ZM101.81 73.4665L104.421 49.9582L106.688 49.7995L104.077 73.3079L101.81 73.4665ZM100.018 59.0133L100.264 56.7182L117.585 55.5063L117.34 57.8014L100.018 59.0133Z" fill="#27272A"/>
</svg>
