<svg width="32" height="33" viewBox="0 0 32 33" fill="none" xmlns="http://www.w3.org/2000/svg">
<circle cx="16.0005" cy="16.002" r="16" fill="#312E81"/>
<path fill-rule="evenodd" clip-rule="evenodd" d="M16.0005 32.002C24.837 32.002 32.0005 24.8385 32.0005 16.002C32.0005 7.1654 24.837 0.00195312 16.0005 0.00195312C7.16393 0.00195312 0.000488281 7.1654 0.000488281 16.002C0.000488281 24.8385 7.16393 32.002 16.0005 32.002ZM12.0664 26.6274C13.3619 27.1274 14.8221 27.3774 16.4471 27.3774C17.0494 27.3774 17.6687 27.3234 18.3051 27.2155C18.9471 27.1075 19.5551 26.9598 20.1289 26.7723C20.7085 26.5848 21.2085 26.3774 21.6289 26.1501L21.1943 24.9569C20.8875 25.1274 20.484 25.3007 19.984 25.4768C19.4897 25.653 18.9386 25.8007 18.3306 25.92C17.7284 26.045 17.1147 26.1075 16.4897 26.1075C15.0806 26.1075 13.8136 25.8859 12.6886 25.4427C11.5636 24.9996 10.6034 24.366 9.80791 23.5422C9.01813 22.7183 8.41302 21.7268 7.99256 20.5677C7.57211 19.4086 7.36188 18.1104 7.36188 16.6729C7.36188 15.2524 7.57211 13.9655 7.99256 12.8121C8.41302 11.653 9.01245 10.6558 9.79086 9.82058C10.575 8.98535 11.5096 8.34331 12.5948 7.89444C13.6801 7.44558 14.8875 7.22115 16.217 7.22115C17.2909 7.22115 18.2681 7.37171 19.1488 7.67285C20.0352 7.97399 20.8221 8.39444 21.5096 8.93422C22.1971 9.46831 22.7767 10.0933 23.2482 10.8092C23.7198 11.5194 24.0778 12.2922 24.3221 13.1274C24.5721 13.9569 24.6971 14.8149 24.6971 15.7013C24.6971 16.8717 24.6062 17.8575 24.4244 18.6586C24.2426 19.4541 23.9556 20.0564 23.5636 20.4655C23.1772 20.8689 22.6744 21.0706 22.0551 21.0706C21.5437 21.0706 21.1687 20.9058 20.9301 20.5763C20.6971 20.241 20.5806 19.7751 20.5806 19.1785V11.278H19.1914V12.8206H19.1062C18.9585 12.4626 18.7142 12.1416 18.3732 11.8575C18.0323 11.5734 17.6176 11.3575 17.1289 11.2098C16.6403 11.0564 16.1062 10.9996 15.5267 11.0393C14.8789 11.0848 14.2738 11.2524 13.7113 11.5422C13.1488 11.8319 12.6573 12.2211 12.2369 12.7098C11.8221 13.1984 11.4954 13.7694 11.2568 14.4229C11.0238 15.0763 10.9073 15.7893 10.9073 16.5621C10.9073 17.3632 11.0125 18.1104 11.2227 18.8035C11.4329 19.491 11.7369 20.0961 12.1346 20.6189C12.538 21.1416 13.0238 21.5535 13.592 21.8547C14.1659 22.1558 14.8107 22.3149 15.5267 22.3319C16.1573 22.349 16.7113 22.2581 17.1886 22.0592C17.6715 21.8604 18.0778 21.5933 18.4073 21.2581C18.7369 20.9172 18.9926 20.5422 19.1744 20.1331H19.2596C19.3051 20.6729 19.4698 21.1047 19.7539 21.4285C20.0437 21.7467 20.3903 21.9768 20.7937 22.1189C21.2028 22.2552 21.6176 22.3234 22.038 22.3234C22.8392 22.3234 23.5011 22.1359 24.0238 21.7609C24.5465 21.3802 24.9556 20.8717 25.2511 20.2354C25.5465 19.599 25.7539 18.8888 25.8732 18.1047C25.9982 17.3206 26.0607 16.5251 26.0607 15.7183C26.0607 14.4456 25.8363 13.2268 25.3875 12.0621C24.9443 10.8916 24.2994 9.84899 23.4528 8.93422C22.6062 8.01944 21.5806 7.29785 20.3761 6.76944C19.1715 6.23535 17.8079 5.96831 16.2852 5.96831C14.7284 5.96831 13.3136 6.22399 12.0409 6.73535C10.7738 7.24103 9.68291 7.96262 8.76813 8.90012C7.85904 9.83762 7.15734 10.9598 6.66302 12.2666C6.17438 13.5734 5.93006 15.028 5.93006 16.6302C5.93006 18.2666 6.17154 19.7467 6.6545 21.0706C7.14313 22.3944 7.842 23.5251 8.75109 24.4626C9.66586 25.4058 10.771 26.1274 12.0664 26.6274ZM17.6573 20.4569C17.1289 20.8149 16.4784 20.9939 15.7056 20.9939C14.95 20.9939 14.3164 20.7865 13.8051 20.3717C13.2994 19.9513 12.9159 19.4001 12.6545 18.7183C12.3988 18.0365 12.271 17.295 12.271 16.4939C12.271 15.7382 12.4159 15.045 12.7056 14.4143C13.0011 13.7836 13.4073 13.2808 13.9244 12.9058C14.4471 12.5251 15.0551 12.3348 15.7482 12.3348C16.4642 12.3348 17.0835 12.4854 17.6062 12.7865C18.1346 13.0819 18.5409 13.5365 18.825 14.1501C19.1147 14.7638 19.2596 15.545 19.2596 16.4939C19.2596 17.4371 19.1232 18.2439 18.8505 18.9143C18.5835 19.5848 18.1857 20.099 17.6573 20.4569Z" fill="#2DD4BF"/>
</svg>
