<svg width="68" height="21" viewBox="0 0 68 21" fill="none" xmlns="http://www.w3.org/2000/svg">
<path fill-rule="evenodd" clip-rule="evenodd" d="M64.5488 7.40932C66.4379 7.40932 67.9692 5.86349 67.9692 3.95662C67.9692 2.04974 66.4379 0.503906 64.5488 0.503906C62.6598 0.503906 61.1284 2.04974 61.1284 3.95662C61.1284 5.86349 62.6598 7.40932 64.5488 7.40932ZM63.7289 6.12041C63.9988 6.22458 64.303 6.27666 64.6416 6.27666C64.767 6.27666 64.8961 6.26541 65.0286 6.24292C65.1624 6.22043 65.2891 6.18966 65.4086 6.15059C65.5294 6.11153 65.6335 6.06833 65.7211 6.02098L65.6306 5.7724C65.5666 5.80791 65.4826 5.84401 65.3784 5.88071C65.2754 5.9174 65.1606 5.94818 65.034 5.97304C64.9085 5.99908 64.7807 6.0121 64.6504 6.0121C64.3569 6.0121 64.0929 5.96593 63.8585 5.8736C63.6242 5.78127 63.4241 5.64929 63.2584 5.47765C63.0939 5.30601 62.9678 5.09946 62.8802 4.85798C62.7926 4.6165 62.7488 4.34602 62.7488 4.04654C62.7488 3.75062 62.7926 3.48251 62.8802 3.24221C62.9678 3.00074 63.0927 2.79299 63.2549 2.61899C63.4182 2.44498 63.6129 2.31122 63.839 2.21771C64.0651 2.1242 64.3166 2.07744 64.5936 2.07744C64.8174 2.07744 65.0209 2.10881 65.2044 2.17154C65.3891 2.23428 65.553 2.32188 65.6963 2.43433C65.8395 2.5456 65.9602 2.67581 66.0585 2.82495C66.1567 2.97292 66.2313 3.1339 66.2822 3.30791C66.3343 3.48073 66.3603 3.65947 66.3603 3.84413C66.3603 4.08797 66.3414 4.29335 66.3035 4.46025C66.2656 4.62597 66.2058 4.75145 66.1242 4.83667C66.0437 4.92072 65.9389 4.96274 65.8099 4.96274C65.7034 4.96274 65.6252 4.92841 65.5755 4.85976C65.527 4.78992 65.5027 4.69285 65.5027 4.56856V2.92261H65.2133V3.24399H65.1955C65.1648 3.16941 65.1139 3.10253 65.0428 3.04335C64.9718 2.98416 64.8854 2.93918 64.7836 2.90841C64.6818 2.87645 64.5705 2.86461 64.4498 2.87289C64.3149 2.88236 64.1888 2.91728 64.0716 2.97765C63.9544 3.03802 63.852 3.11911 63.7644 3.22091C63.678 3.3227 63.61 3.44167 63.5602 3.57779C63.5117 3.71392 63.4874 3.86248 63.4874 4.02346C63.4874 4.19037 63.5093 4.34602 63.5531 4.49044C63.5969 4.63367 63.6603 4.75973 63.7431 4.86863C63.8272 4.97753 63.9284 5.06335 64.0468 5.12609C64.1663 5.18883 64.3007 5.22197 64.4498 5.22552C64.5812 5.22907 64.6966 5.21013 64.796 5.1687C64.8967 5.12727 64.9813 5.07164 65.0499 5.0018C65.1186 4.93078 65.1719 4.85265 65.2098 4.76743H65.2275C65.237 4.87988 65.2713 4.96984 65.3305 5.03731C65.3909 5.1036 65.4631 5.15154 65.5471 5.18113C65.6323 5.20954 65.7187 5.22375 65.8063 5.22375C65.9732 5.22375 66.1111 5.18468 66.22 5.10656C66.329 5.02725 66.4142 4.92131 66.4757 4.78873C66.5373 4.65616 66.5805 4.50819 66.6053 4.34484C66.6314 4.18149 66.6444 4.01577 66.6444 3.84768C66.6444 3.58253 66.5977 3.32862 66.5041 3.08596C66.4118 2.84212 66.2775 2.62491 66.1011 2.43433C65.9247 2.24375 65.7111 2.09342 65.4601 1.98333C65.2092 1.87207 64.9251 1.81643 64.6078 1.81643C64.2835 1.81643 63.9888 1.8697 63.7236 1.97623C63.4596 2.08158 63.2324 2.23191 63.0418 2.42723C62.8524 2.62254 62.7062 2.85632 62.6032 3.12858C62.5014 3.40083 62.4505 3.70386 62.4505 4.03767C62.4505 4.37858 62.5008 4.68693 62.6014 4.96274C62.7032 5.23854 62.8488 5.4741 63.0382 5.66941C63.2288 5.86591 63.459 6.01624 63.7289 6.12041ZM64.8937 4.8349C64.7836 4.90947 64.6481 4.94676 64.4871 4.94676C64.3297 4.94676 64.1977 4.90355 64.0911 4.81714C63.9858 4.72955 63.9059 4.61473 63.8514 4.47268C63.7982 4.33064 63.7715 4.17616 63.7715 4.00926C63.7715 3.85182 63.8017 3.70741 63.8621 3.57602C63.9236 3.44463 64.0083 3.33987 64.116 3.26174C64.2249 3.18244 64.3516 3.14278 64.496 3.14278C64.6451 3.14278 64.7741 3.17415 64.883 3.23689C64.9931 3.29844 65.0778 3.39314 65.137 3.52098C65.1973 3.64882 65.2275 3.81158 65.2275 4.00926C65.2275 4.20575 65.1991 4.37384 65.1423 4.51352C65.0866 4.6532 65.0038 4.76032 64.8937 4.8349Z" fill="#14B8A6"/>
<path d="M1.59388 16.0615V4.42516H4.05411V14.0331H9.04275V16.0615H1.59388ZM10.6266 16.0615V7.33425H13.047V16.0615H10.6266ZM11.8425 6.20925C11.4826 6.20925 11.1739 6.08993 10.9163 5.8513C10.6625 5.60887 10.5356 5.3191 10.5356 4.98198C10.5356 4.64864 10.6625 4.36266 10.9163 4.12402C11.1739 3.8816 11.4826 3.76039 11.8425 3.76039C12.2023 3.76039 12.5091 3.8816 12.7629 4.12402C13.0205 4.36266 13.1493 4.64864 13.1493 4.98198C13.1493 5.3191 13.0205 5.60887 12.7629 5.8513C12.5091 6.08993 12.2023 6.20925 11.8425 6.20925ZM17.4064 11.0161V16.0615H14.9859V7.33425H17.2927V8.87402H17.395C17.5882 8.36645 17.9121 7.96493 18.3666 7.66948C18.8212 7.37024 19.3723 7.22061 20.02 7.22061C20.6261 7.22061 21.1545 7.35319 21.6052 7.61834C22.056 7.88349 22.4064 8.26228 22.6564 8.7547C22.9064 9.24334 23.0314 9.82667 23.0314 10.5047V16.0615H20.6109V10.9365C20.6147 10.4024 20.4784 9.98577 20.2018 9.68652C19.9253 9.38349 19.5446 9.23198 19.0598 9.23198C18.734 9.23198 18.4462 9.30205 18.1962 9.4422C17.9499 9.58236 17.7568 9.7869 17.6166 10.0558C17.4802 10.321 17.4102 10.6411 17.4064 11.0161ZM27.1322 13.5502L27.1379 10.6468H27.4902L30.2856 7.33425H33.0641L29.3084 11.7206H28.7345L27.1322 13.5502ZM24.9391 16.0615V4.42516H27.3595V16.0615H24.9391ZM30.3936 16.0615L27.8254 12.2604L29.4391 10.5502L33.2288 16.0615H30.3936ZM41.5129 9.82289L39.297 9.95925C39.2591 9.76986 39.1777 9.5994 39.0527 9.44789C38.9277 9.29258 38.7629 9.16948 38.5584 9.07857C38.3576 8.98387 38.1171 8.93652 37.8368 8.93652C37.4618 8.93652 37.1455 9.01607 36.8879 9.17516C36.6303 9.33046 36.5016 9.5388 36.5016 9.80016C36.5016 10.0085 36.5849 10.1846 36.7516 10.3286C36.9182 10.4725 37.2042 10.588 37.6095 10.6752L39.1891 10.9933C40.0375 11.1676 40.6701 11.4479 41.0868 11.8343C41.5034 12.2206 41.7118 12.7282 41.7118 13.357C41.7118 13.9289 41.5432 14.4308 41.2061 14.8627C40.8728 15.2945 40.4144 15.6316 39.8311 15.874C39.2516 16.1127 38.583 16.232 37.8254 16.232C36.6701 16.232 35.7497 15.9914 35.0641 15.5104C34.3822 15.0255 33.9826 14.3664 33.8652 13.5331L36.2459 13.4081C36.3178 13.7604 36.4921 14.0293 36.7686 14.2149C37.0451 14.3968 37.3993 14.4877 37.8311 14.4877C38.2553 14.4877 38.5963 14.4062 38.8538 14.2433C39.1152 14.0767 39.2478 13.8627 39.2516 13.6013C39.2478 13.3816 39.155 13.2017 38.9731 13.0615C38.7913 12.9176 38.511 12.8077 38.1322 12.732L36.6209 12.4308C35.7686 12.2604 35.1341 11.9649 34.7175 11.5445C34.3046 11.124 34.0981 10.588 34.0981 9.93652C34.0981 9.37592 34.2497 8.89296 34.5527 8.48766C34.8595 8.08236 35.2894 7.76986 35.8425 7.55016C36.3993 7.33046 37.0508 7.22061 37.797 7.22061C38.8993 7.22061 39.7667 7.45357 40.3993 7.91948C41.0356 8.38539 41.4069 9.01986 41.5129 9.82289ZM47.2132 16.232C46.3155 16.232 45.5427 16.0502 44.895 15.6865C44.2511 15.3191 43.7549 14.8002 43.4064 14.1297C43.0579 13.4555 42.8837 12.6581 42.8837 11.7377C42.8837 10.8399 43.0579 10.0521 43.4064 9.37402C43.7549 8.69599 44.2454 8.16758 44.878 7.7888C45.5143 7.41001 46.2605 7.22061 47.1166 7.22061C47.6924 7.22061 48.2284 7.31342 48.7246 7.49902C49.2246 7.68084 49.6602 7.95546 50.0314 8.32289C50.4064 8.69031 50.6981 9.15243 50.9064 9.70925C51.1147 10.2623 51.2189 10.91 51.2189 11.6524V12.3172H43.8496V10.8172H48.9405C48.9405 10.4687 48.8647 10.16 48.7132 9.89107C48.5617 9.62213 48.3515 9.4119 48.0825 9.26039C47.8174 9.10508 47.5087 9.02743 47.1564 9.02743C46.789 9.02743 46.4632 9.11266 46.1791 9.28311C45.8988 9.44978 45.6791 9.67516 45.52 9.95925C45.3609 10.2396 45.2795 10.5521 45.2757 10.8968V12.3229C45.2757 12.7547 45.3552 13.1278 45.5143 13.4422C45.6772 13.7566 45.9064 13.999 46.2018 14.1695C46.4973 14.3399 46.8477 14.4252 47.253 14.4252C47.5219 14.4252 47.7681 14.3873 47.9916 14.3115C48.2151 14.2358 48.4064 14.1221 48.5655 13.9706C48.7246 13.8191 48.8458 13.6335 48.9291 13.4138L51.1677 13.5615C51.0541 14.0994 50.8212 14.5691 50.4689 14.9706C50.1204 15.3683 49.6696 15.6789 49.1166 15.9024C48.5674 16.1221 47.9329 16.232 47.2132 16.232ZM55.2871 16.2263C54.7302 16.2263 54.234 16.1297 53.7984 15.9365C53.3628 15.7396 53.0181 15.4498 52.7643 15.0672C52.5143 14.6808 52.3893 14.1998 52.3893 13.624C52.3893 13.1392 52.4784 12.732 52.6564 12.4024C52.8344 12.0729 53.0768 11.8077 53.3837 11.607C53.6905 11.4062 54.039 11.2547 54.4291 11.1524C54.823 11.0502 55.2359 10.9782 55.6677 10.9365C56.1753 10.8835 56.5844 10.8343 56.895 10.7888C57.2056 10.7396 57.431 10.6676 57.5712 10.5729C57.7113 10.4782 57.7814 10.338 57.7814 10.1524V10.1183C57.7814 9.75849 57.6677 9.48008 57.4405 9.28311C57.217 9.08614 56.8988 8.98766 56.4859 8.98766C56.0503 8.98766 55.7037 9.08425 55.4462 9.27743C55.1886 9.46683 55.0181 9.70546 54.9348 9.99334L52.6962 9.81152C52.8098 9.28122 53.0333 8.82289 53.3666 8.43652C53.6999 8.04637 54.1299 7.74713 54.6564 7.5388C55.1867 7.32667 55.8003 7.22061 56.4973 7.22061C56.9821 7.22061 57.4462 7.27743 57.8893 7.39107C58.3363 7.50471 58.7321 7.68084 59.0768 7.91948C59.4253 8.15811 59.6999 8.46493 59.9007 8.83993C60.1015 9.21114 60.2018 9.65622 60.2018 10.1752V16.0615H57.9064V14.8513H57.8382C57.698 15.124 57.5105 15.3646 57.2757 15.5729C57.0409 15.7774 56.7587 15.9384 56.4291 16.0558C56.0996 16.1695 55.7189 16.2263 55.2871 16.2263ZM55.9802 14.5558C56.3363 14.5558 56.6507 14.4858 56.9234 14.3456C57.1962 14.2017 57.4102 14.0085 57.5655 13.7661C57.7208 13.5236 57.7984 13.249 57.7984 12.9422V12.0161C57.7227 12.0653 57.6185 12.1108 57.4859 12.1524C57.3571 12.1903 57.2113 12.2263 57.0484 12.2604C56.8856 12.2907 56.7227 12.3191 56.5598 12.3456C56.3969 12.3683 56.2492 12.3892 56.1166 12.4081C55.8325 12.4498 55.5844 12.5161 55.3723 12.607C55.1602 12.6979 54.9954 12.821 54.878 12.9763C54.7605 13.1278 54.7018 13.3172 54.7018 13.5445C54.7018 13.874 54.8212 14.1259 55.0598 14.3002C55.3022 14.4706 55.609 14.5558 55.9802 14.5558Z" fill="#F4F4F5"/>
</svg>
